# Blender 5.0.0
# www.blender.org
mtllib Table.mtl
g Table_Table
v 0.920848 0.897316 -0.771131
v 1.255626 0.017898 -0.917849
v 0.948468 0.897201 -0.882666
v 1.016224 0.896881 -0.961705
v 1.259359 0.017238 -1.021324
v 1.124368 0.896878 -0.956007
v 1.359963 0.017405 -1.060472
v 1.177612 0.896967 -0.856648
v 1.173993 0.897096 -0.740453
v 1.386217 0.017551 -0.956490
v 1.116418 0.896982 -0.633013
v 1.007545 0.898865 -0.604857
v 1.301385 0.017491 -0.872202
v 0.943577 0.897992 -0.664239
v -0.932436 0.017898 -1.265748
v -0.714436 0.897992 -0.927860
v -0.659672 0.897316 -1.022433
v -0.903890 0.017238 -1.365278
v -0.651336 0.897201 -1.137035
v -0.691237 0.896881 -1.233191
v -0.987389 0.017405 -1.433700
v -0.795816 0.896878 -1.261315
v -1.044602 0.017551 -1.342990
v -0.877252 0.896967 -1.183368
v -0.909848 0.897096 -1.071782
v -0.990095 0.017491 -1.236547
v -0.888437 0.896982 -0.951789
v -0.793667 0.898865 -0.891249
v -0.967146 0.897993 0.661572
v -1.324954 0.017492 0.869528
v -1.031123 0.898865 0.602177
v -1.140002 0.896982 0.630345
v -1.409792 0.017551 0.953808
v -1.197568 0.897096 0.737778
v -1.201439 0.897066 0.854689
v -1.383533 0.017405 1.057794
v -1.146903 0.896733 0.953278
v -1.282932 0.017238 1.018642
v -1.039798 0.896881 0.959019
v -0.972047 0.897201 0.879997
v -1.279197 0.017898 0.915176
v -0.944422 0.897316 0.768460
v 0.636096 0.897316 1.019761
v 0.880316 0.017238 1.362598
v 0.627764 0.897201 1.134370
v 0.667666 0.896881 1.230506
v 0.963814 0.017406 1.431021
v 0.771269 0.896733 1.258268
v 1.021029 0.017551 1.340309
v 0.853695 0.897066 1.181451
v 0.886274 0.897096 1.069108
v 0.966516 0.017492 1.233872
v 0.864871 0.896982 0.949123
v 0.770096 0.898865 0.888569
v 0.908857 0.017898 1.263075
v 0.690853 0.897993 0.925191
v 0.705213 0.897050 0.911943
v 0.785063 0.897050 0.888262
v 0.744604 0.897050 0.891152
v 0.670749 0.897050 0.948598
v 0.822630 0.897050 0.903558
v 0.644582 0.897050 0.997536
v 0.853629 0.897050 0.935542
v 0.629276 0.897050 1.053958
v 0.875025 0.897050 0.981076
v 0.626328 0.897050 1.112344
v 0.884723 0.897050 1.035718
v 0.636025 0.897050 1.166985
v 0.881775 0.897050 1.094105
v 0.657422 0.897050 1.212520
v 0.866469 0.897050 1.150526
v 0.688421 0.897050 1.244504
v 0.840302 0.897050 1.199464
v 0.725988 0.897050 1.259801
v 0.805837 0.897050 1.236118
v 0.766447 0.897050 1.256910
v -1.063872 0.897050 0.965890
v -1.141898 0.897050 0.953484
v -1.104331 0.897050 0.968781
v -1.172898 0.897050 0.921500
v -1.024482 0.897050 0.945098
v -1.194294 0.897050 0.875965
v -0.990017 0.897050 0.908444
v -1.203992 0.897050 0.821324
v -0.963850 0.897050 0.859506
v -1.201043 0.897050 0.762938
v -0.948544 0.897050 0.803085
v -1.185738 0.897050 0.706516
v -0.945596 0.897050 0.744698
v -1.159570 0.897050 0.657578
v -0.955294 0.897050 0.690056
v -1.125106 0.897050 0.620923
v -0.976690 0.897050 0.644522
v -1.085716 0.897050 0.600131
v -1.007689 0.897050 0.612538
v -1.045257 0.897050 0.597242
v -1.315569 0.017355 0.873769
v -1.346497 0.017355 0.873648
v -1.375821 0.017355 0.891103
v -1.283406 0.017355 0.905796
v -1.404006 0.017355 0.942708
v -1.272615 0.017355 0.963598
v -1.406975 0.017355 1.004990
v -1.289111 0.017355 1.023732
v -1.383923 0.017355 1.052172
v -1.356189 0.017355 1.065599
v -1.325659 0.017355 1.061436
v 0.893373 0.017355 1.396308
v 0.925536 0.017355 1.428334
v 0.882582 0.017355 1.338508
v 0.965930 0.017355 1.425796
v 0.899076 0.017355 1.278376
v 1.002478 0.017355 1.388090
v 0.935625 0.017355 1.240669
v 1.018972 0.017355 1.327956
v 0.976022 0.017355 1.238132
v 1.008181 0.017355 1.270158
v -0.808636 0.897050 -0.890942
v -0.877203 0.897050 -0.938218
v -0.846205 0.897050 -0.906234
v -0.898598 0.897050 -0.983761
v -0.768178 0.897050 -0.893829
v -0.908297 0.897050 -1.038394
v -0.728787 0.897050 -0.914619
v -0.905349 0.897049 -1.096784
v -0.694322 0.897050 -0.951280
v -0.890042 0.897049 -1.153210
v -0.668156 0.897050 -1.000212
v -0.863876 0.897049 -1.202142
v -0.652849 0.897050 -1.056638
v -0.829410 0.897049 -1.238802
v -0.649900 0.897049 -1.115027
v -0.790020 0.897049 -1.259594
v -0.659600 0.897049 -1.169662
v -0.749562 0.897049 -1.262480
v -0.680995 0.897049 -1.215204
v -0.711994 0.897049 -1.247188
v -0.980038 0.017355 -1.431137
v -0.949118 0.017355 -1.431020
v -0.916950 0.017355 -1.398998
v -1.009356 0.017355 -1.413687
v -0.906156 0.017355 -1.341187
v -1.037546 0.017355 -1.362081
v -0.922650 0.017355 -1.281057
v -1.040516 0.017355 -1.299797
v -0.959189 0.017355 -1.243352
v -1.017471 0.017355 -1.252618
v -0.989731 0.017355 -1.239180
v 1.040299 0.897050 -0.968574
v 1.118325 0.897050 -0.956168
v 1.080757 0.897050 -0.971461
v 1.000909 0.897050 -0.947783
v 1.149324 0.897050 -0.924184
v 0.966443 0.897050 -0.911121
v 1.170720 0.897050 -0.878642
v 0.940277 0.897050 -0.862190
v 1.180419 0.897050 -0.824007
v 0.924971 0.897050 -0.805765
v 1.177470 0.897050 -0.765618
v 0.922022 0.897050 -0.747375
v 1.162163 0.897050 -0.709192
v 0.931721 0.897050 -0.692741
v 1.135997 0.897050 -0.660262
v 0.953116 0.897050 -0.647198
v 1.101532 0.897050 -0.623599
v 0.984115 0.897050 -0.615214
v 1.062141 0.897050 -0.602808
v 1.021683 0.897050 -0.599922
v 1.274115 0.017355 -0.888257
v 1.301856 0.017355 -0.874819
v 1.332402 0.017355 -0.878993
v 1.251071 0.017355 -0.935436
v 1.368937 0.017355 -0.916695
v 1.254041 0.017355 -0.997719
v 1.385431 0.017355 -0.976821
v 1.282232 0.017355 -1.049327
v 1.374638 0.017355 -1.034635
v 1.311549 0.017355 -1.066776
v 1.342467 0.017355 -1.066659
v -1.993895 0.872928 -0.445447
v -1.893221 0.872574 -0.724655
v -1.975082 0.932369 -0.618143
v -1.993895 0.991811 -0.445447
v -1.856519 0.986229 -0.812340
v -1.490510 0.984169 -1.243387
v -1.805092 0.914534 -0.937295
v -1.490510 0.880569 -1.243386
v -1.081291 0.989591 -1.485156
v -1.568438 0.932369 -1.203713
v -1.270870 0.932369 -1.423422
v -1.081291 0.875148 -1.485155
v -0.268463 0.988866 -1.683006
v -0.820882 0.953176 -1.622825
v -0.561657 0.912975 -1.682982
v -0.268464 0.875873 -1.683005
v 0.004073 0.913521 -1.720580
v 0.545800 0.987139 -1.597061
v 0.164257 0.973469 -1.684488
v 0.545800 0.877599 -1.597060
v 0.490311 0.932369 -1.652245
v 1.271894 0.989478 -1.258348
v 1.002035 0.913365 -1.457471
v 0.971037 0.973474 -1.451368
v 1.271894 0.875261 -1.258348
v 1.365851 0.932369 -1.232077
v 1.827748 0.990449 -0.680245
v 1.655480 0.913370 -0.963414
v 1.628782 0.973489 -0.965870
v 1.873477 0.912188 -0.659816
v 1.773852 0.868546 -0.733972
v 2.002639 0.876818 -0.277923
v 2.036835 0.992164 -0.099773
v 2.019006 0.950205 -0.329255
v 2.081624 0.932369 0.026878
v 2.045430 0.872963 0.010421
v 2.045946 0.991811 0.196875
v 2.071814 0.911082 0.254154
v -2.034133 0.875790 -0.103202
v -1.984237 0.876819 0.241000
v -2.070693 0.932369 -0.170152
v -2.034133 0.988949 -0.103202
v -1.984237 0.987920 0.241000
v -2.000844 0.932370 0.292157
v -1.755439 0.868546 0.697046
v -1.802152 0.972565 0.690074
v -1.802152 0.892174 0.690074
v -1.858252 0.932370 0.619008
v -1.755439 0.996193 0.697046
v -1.587564 0.953330 0.984870
v -1.152661 0.875607 1.287649
v -1.399145 0.913036 1.154475
v -1.152661 0.989132 1.287649
v -0.387772 0.876858 1.592898
v -0.756654 0.973472 1.499284
v -0.910577 0.911765 1.459071
v -0.471936 0.932370 1.615298
v 0.414580 0.875606 1.635437
v -0.387771 0.987881 1.592898
v 0.077723 0.913422 1.683582
v 0.051071 0.973471 1.663283
v 0.414581 0.989133 1.635437
v 0.515990 0.932370 1.656925
v 0.886513 0.973480 1.547732
v 1.197730 0.874697 1.399465
v 0.913855 0.913325 1.558292
v 1.197730 0.990042 1.399466
v 1.289288 0.932370 1.386472
v 1.567742 0.999299 1.131227
v 1.582620 0.912192 1.169473
v 1.823854 0.987920 0.846485
v 1.823782 0.932370 0.900263
v 1.823854 0.876819 0.846484
v 1.993488 0.932370 0.581195
v 1.978050 0.988949 0.534732
v 1.983867 0.873555 0.513853
v 1.581874 0.864178 1.086589
vn -0.9799 -0.1872 0.0690
vn -0.7339 -0.2475 0.6325
vn -0.5747 -0.2067 0.7918
vn -0.5195 -0.0938 -0.8493
vn -0.7563 -0.1553 -0.6355
vn -0.2044 -0.0436 -0.9779
vn 0.5415 -0.1948 -0.8178
vn 0.3556 0.0125 -0.9346
vn 0.8758 0.1568 -0.4565
vn 0.9701 -0.0891 0.2257
vn 0.9185 -0.0031 0.3953
vn 0.2104 -0.0809 0.9743
vn -0.1202 -0.0142 0.9927
vn -0.2659 -0.0509 0.9627
vn 0.8701 -0.2267 0.4376
vn 0.3200 -0.2085 0.9242
vn 0.5237 -0.2344 0.8190
vn 0.7978 -0.0573 -0.6002
vn 0.9180 -0.1540 -0.3655
vn 0.7744 -0.2941 -0.5601
vn -0.2634 -0.1778 -0.9481
vn -0.0554 0.0323 -0.9979
vn -0.6886 0.1632 -0.7065
vn -0.9869 -0.1342 -0.0893
vn -0.9971 0.0236 0.0727
vn -0.7946 -0.4293 0.4293
vn -0.1880 -0.0148 0.9821
vn -0.0391 -0.0507 0.9979
vn 0.6187 -0.2118 -0.7565
vn 0.7290 -0.2342 -0.6432
vn 0.2670 -0.0733 -0.9609
vn 0.1103 -0.0182 -0.9937
vn -0.1967 -0.0847 -0.9768
vn -0.9663 -0.0900 -0.2411
vn -0.8870 0.0787 -0.4550
vn -0.8486 0.1610 0.5040
vn -0.5667 -0.1617 0.8079
vn -0.3218 -0.0002 0.9468
vn 0.1751 -0.0388 0.9838
vn 0.5730 -0.0669 0.8168
vn 0.7650 -0.1594 0.6240
vn 0.9646 -0.2253 -0.1372
vn -0.4957 -0.2280 -0.8380
vn -0.7806 -0.0805 0.6198
vn -0.8913 -0.2198 -0.3965
vn -0.8986 -0.1567 0.4098
vn -0.4783 -0.0375 0.8774
vn 0.2878 -0.1853 0.9396
vn 0.0257 -0.0053 0.9997
vn 0.6199 0.1576 0.7687
vn 0.9969 -0.0788 -0.0026
vn 0.9842 0.0978 -0.1475
vn 0.7973 -0.4274 -0.4261
vn 0.1888 -0.0027 -0.9820
vn 0.0502 -0.0602 -0.9969
vn -0.3361 -0.2101 -0.9181
vn 0.0033 1.0000 0.0045
vn 0.0032 -1.0000 0.0046
vn 0.0029 -1.0000 0.0048
vn 0.0034 -1.0000 0.0044
vn 0.0036 -1.0000 0.0042
vn 0.0031 -1.0000 0.0046
vn 0.0039 -1.0000 0.0039
vn 0.0041 -1.0000 0.0038
vn 0.0032 -1.0000 0.0045
vn 0.0024 -1.0000 0.0051
vn 0.0045 -1.0000 0.0032
vn 0.0035 -1.0000 0.0043
vn 0.0027 -1.0000 0.0049
vn 0.0037 -1.0000 0.0041
vn 0.0033 -1.0000 0.0045
vn 0.0017 -1.0000 0.0053
vn 0.0036 -1.0000 0.0043
vn 0.0038 -1.0000 0.0041
vn 0.0030 -1.0000 0.0047
vn 0.0028 -1.0000 0.0048
vn 0.0026 -1.0000 0.0049
vn 0.0035 -1.0000 0.0044
vn -0.8873 -0.1781 -0.4254
vn -0.4094 -0.8822 -0.2326
vn -0.9940 0.0440 0.1006
vn -0.1994 -0.9420 -0.2699
vn -0.5038 -0.1163 -0.8560
vn -0.4366 0.8996 -0.0029
vn -0.2726 0.7877 -0.5525
vn -0.0002 -0.8989 -0.4381
vn -0.0198 0.7271 -0.6863
vn -0.4343 0.0551 -0.8991
vn -0.2373 0.0037 -0.9714
vn 0.0605 0.9117 -0.4064
vn 0.0501 -0.9152 -0.3999
vn 0.0068 0.1435 -0.9896
vn 0.2805 0.7931 -0.5406
vn 0.0666 -0.2704 -0.9605
vn 0.0944 -0.9521 -0.2907
vn 0.2026 -0.1970 -0.9592
vn 0.2839 0.3608 -0.8884
vn 0.4322 0.8092 -0.3980
vn 0.3704 -0.8871 -0.2753
vn 0.1838 0.0329 -0.9824
vn 0.4337 -0.0806 -0.8975
vn 0.4713 -0.8598 -0.1967
vn 0.2335 0.3359 -0.9125
vn 0.5600 0.6824 -0.4698
vn 0.5387 0.2069 -0.8167
vn 0.6698 0.0134 -0.7424
vn 0.1405 -0.9871 -0.0767
vn 0.4671 0.4064 -0.7853
vn 0.7819 0.5934 -0.1911
vn 0.7030 0.0803 -0.7067
vn 0.8350 -0.5486 -0.0418
vn 0.8587 0.5122 -0.0148
vn 0.6842 0.7117 0.1590
vn 0.9564 0.0356 -0.2898
vn 0.4912 -0.8285 0.2691
vn 0.9476 -0.2644 0.1794
vn 0.3433 -0.8537 0.3916
vn 0.4275 0.8832 0.1930
vn -0.2918 -0.9361 0.1962
vn -0.4122 -0.7757 0.4779
vn -0.4463 0.8293 0.3362
vn -0.2342 0.9182 0.3196
vn -0.7702 0.1882 0.6094
vn -0.8927 0.0986 0.4397
vn -0.0242 0.9976 0.0648
vn -0.1805 -0.9825 -0.0451
vn -0.6924 -0.1211 0.7113
vn -0.8949 -0.3256 0.3053
vn -0.4221 0.2111 0.8816
vn -0.3826 -0.1441 0.9126
vn -0.0546 -0.9305 0.3622
vn -0.0489 0.8837 0.4655
vn -0.2021 -0.1705 0.9644
vn 0.1841 -0.8857 0.4262
vn 0.1594 0.6365 0.7546
vn 0.1671 0.9154 0.3663
vn -0.2255 0.0024 0.9742
vn -0.0325 -0.1373 0.9900
vn 0.3196 -0.7420 0.5893
vn -0.0372 0.3396 0.9398
vn 0.3422 0.8132 0.4708
vn 0.1070 -0.1357 0.9849
vn 0.1264 0.3835 0.9149
vn 0.5344 0.6422 0.5495
vn 0.5531 -0.4099 0.7253
vn 0.5267 -0.6915 0.4944
vn 0.3979 -0.2656 0.8781
vn 0.4755 0.7923 0.3822
vn 0.7963 0.1695 0.5806
vn 0.2648 -0.9390 0.2193
vn 0.5170 -0.0031 0.8560
vn 0.7473 0.5347 0.3945
vn 0.6568 -0.5269 0.5395
vn 0.7929 -0.0178 0.6092
vn 0.7243 0.6895 0.0026
vt 0.980062 0.989791
vt 0.966979 0.893252
vt 0.984863 0.989220
vt 0.961351 0.893328
vt 0.972771 0.989595
vt 0.965527 0.988523
vt 0.952599 0.892037
vt 0.956259 0.987041
vt 0.947811 0.986553
vt 0.945250 0.892031
vt 0.940699 0.987108
vt 0.932799 0.988415
vt 0.936150 0.893376
vt 0.923323 0.989730
vt 0.931534 0.893358
vt 0.916157 0.989676
vt 0.875895 0.457031
vt 0.868511 0.455755
vt 0.887754 0.360134
vt 0.894214 0.360404
vt 0.882698 0.456838
vt 0.890210 0.455615
vt 0.903161 0.359077
vt 0.899573 0.454061
vt 0.907658 0.453613
vt 0.910596 0.359074
vt 0.915047 0.454312
vt 0.922669 0.455401
vt 0.919553 0.360514
vt 0.932352 0.456722
vt 0.923340 0.360352
vt 0.937988 0.457031
vt 0.442673 0.464655
vt 0.458034 0.368164
vt 0.449832 0.464534
vt 0.462736 0.368128
vt 0.459411 0.463213
vt 0.471768 0.366887
vt 0.467277 0.462124
vt 0.474609 0.461426
vt 0.479043 0.366889
vt 0.482848 0.461882
vt 0.492114 0.463428
vt 0.487975 0.368068
vt 0.499234 0.464651
vt 0.506428 0.464844
vt 0.493355 0.368164
vt 0.511230 0.463867
vt 0.444824 0.900696
vt 0.449036 0.900607
vt 0.430583 0.997079
vt 0.437727 0.996885
vt 0.444898 0.995809
vt 0.457969 0.899310
vt 0.454164 0.994331
vt 0.462549 0.993835
vt 0.465244 0.899294
vt 0.469840 0.994391
vt 0.477517 0.995696
vt 0.474350 0.900652
vt 0.487206 0.997012
vt 0.479388 0.900559
vt 0.494488 0.996958
vt 0.500000 0.995972
vt 0.789062 0.096680
vt 0.812012 0.102051
vt 0.768066 0.100586
vt 0.834961 0.115723
vt 0.750977 0.113770
vt 0.854980 0.137207
vt 0.739746 0.134277
vt 0.870605 0.164062
vt 0.734863 0.160645
vt 0.879883 0.193359
vt 0.737305 0.189453
vt 0.882812 0.222656
vt 0.747070 0.219238
vt 0.877930 0.249023
vt 0.762695 0.246094
vt 0.866211 0.269531
vt 0.782715 0.267090
vt 0.849609 0.282227
vt 0.805176 0.281250
vt 0.828125 0.286621
vt 0.777755 0.098783
vt 0.737721 0.145215
vt 0.741993 0.203751
vt 0.821530 0.107721
vt 0.773860 0.257803
vt 0.862480 0.150097
vt 0.818616 0.284396
vt 0.881517 0.209699
vt 0.871067 0.261033
vt 0.746321 0.122270
vt 0.777756 0.098783
vt 0.862479 0.150095
vt 0.735943 0.173389
vt 0.881516 0.209695
vt 0.755197 0.233206
vt 0.871068 0.261032
vt 0.795859 0.275376
vt 0.839691 0.284255
vt 0.879954 0.238093
vt 0.839705 0.284252
vt 0.795868 0.275382
vt 0.875430 0.179299
vt 0.755195 0.233202
vt 0.843818 0.125228
vt 0.735943 0.173390
vt 0.798583 0.098908
vt 0.746317 0.122278
vt 0.746315 0.122283
vt 0.755193 0.233199
vt 0.879954 0.238095
vt 0.795866 0.275381
vt 0.839706 0.284252
vt 0.394043 0.829209
vt 0.399152 0.837937
vt 0.394043 0.844360
vt 0.398814 0.821178
vt 0.395022 0.809038
vt 0.388744 0.837937
vt 0.389408 0.815900
vt 0.398141 0.780010
vt 0.389686 0.780015
vt 0.393799 0.786537
vt 0.393799 0.761471
vt 0.388381 0.746531
vt 0.399216 0.746531
vt 0.392362 0.725227
vt 0.388575 0.681955
vt 0.395229 0.704839
vt 0.399023 0.681892
vt 0.395011 0.660323
vt 0.389648 0.647368
vt 0.388657 0.616161
vt 0.398697 0.616162
vt 0.393555 0.621202
vt 0.394968 0.578206
vt 0.399182 0.552908
vt 0.389648 0.580142
vt 0.387999 0.552908
vt 0.393555 0.545144
vt 0.394920 0.516715
vt 0.400879 0.500358
vt 0.389404 0.518301
vt 0.388097 0.494841
vt 0.395181 0.490846
vt 0.399194 0.466605
vt 0.392332 0.468183
vt 0.388540 0.455922
vt 0.393311 0.448013
vt 0.399083 0.449273
vt 0.395872 0.435779
vt 0.400635 0.433105
vt 0.388151 0.439230
vt 0.378130 0.326828
vt 0.378672 0.340164
vt 0.372803 0.335981
vt 0.378556 0.360302
vt 0.367559 0.326828
vt 0.367046 0.340164
vt 0.367294 0.360302
vt 0.372803 0.362088
vt 0.368896 0.390799
vt 0.365479 0.394045
vt 0.380371 0.394045
vt 0.376953 0.390799
vt 0.372803 0.384303
vt 0.371349 0.415665
vt 0.374525 0.434072
vt 0.378343 0.455702
vt 0.367507 0.455737
vt 0.374484 0.478212
vt 0.378068 0.520977
vt 0.368896 0.490592
vt 0.367867 0.520977
vt 0.373047 0.514817
vt 0.374587 0.558946
vt 0.378648 0.585504
vt 0.368998 0.556924
vt 0.367690 0.585585
vt 0.373291 0.593792
vt 0.369141 0.623141
vt 0.367558 0.647999
vt 0.374668 0.624931
vt 0.378948 0.647968
vt 0.373291 0.655197
vt 0.367841 0.680872
vt 0.375130 0.680178
vt 0.380615 0.682069
vt 0.373535 0.702366
vt 0.367652 0.704293
vt 0.378930 0.704293
vt 0.373535 0.722886
vt 0.367422 0.724545
vt 0.378774 0.726089
vt 0.375812 0.738037
vt 0.368132 0.738037
vt 0.442025 0.337390
vt 0.456582 0.012368
vt 0.486081 0.003106
vt 0.522569 0.001747
vt 0.417682 0.039708
vt 0.559659 0.010717
vt 0.589143 0.026634
vt 0.377834 0.098628
vt 0.625429 0.062249
vt 0.362553 0.165819
vt 0.659826 0.128986
vt 0.371312 0.235375
vt 0.668698 0.198924
vt 0.405439 0.302090
vt 0.653351 0.266029
vt 0.613363 0.324655
vt 0.508512 0.362667
vt 0.471382 0.354029
vt 0.574912 0.351890
vt 0.544725 0.361447
vt 0.741911 0.032229
vt 0.951044 0.300498
vt 0.917268 0.337256
vt 0.979671 0.232447
vt 0.888877 0.354331
vt 0.852491 0.364476
vt 0.982338 0.162588
vt 0.815626 0.364569
vt 0.961123 0.096057
vt 0.784766 0.355982
vt 0.743246 0.330146
vt 0.915575 0.038822
vt 0.698057 0.273087
vt 0.874112 0.012973
vt 0.836866 0.004032
vt 0.676533 0.206377
vt 0.800001 0.005252
vt 0.679349 0.136536
vt 0.769815 0.014809
vt 0.707882 0.068644
s 1
f 1/1/1 2/2/2 14/3/3
f 2/2/2 1/1/1 5/4/4
f 3/5/5 5/4/4 1/1/1
f 4/6/6 5/4/4 3/5/5
f 5/4/4 4/6/6 7/7/7
f 4/6/6 6/8/8 7/7/7
f 8/9/9 7/7/7 6/8/8
f 7/7/7 8/9/9 10/10/10
f 9/11/11 10/10/10 8/9/9
f 11/12/12 10/10/10 9/11/11
f 10/10/10 11/12/12 13/13/13
f 12/14/14 13/13/13 11/12/12
f 13/13/13 12/14/14 2/15/2
f 14/16/3 2/15/2 12/14/14
f 17/17/15 16/18/16 15/19/17
f 15/19/17 18/20/18 17/17/15
f 19/21/19 17/17/15 18/20/18
f 20/22/20 19/21/19 18/20/18
f 18/20/18 21/23/21 20/22/20
f 22/24/22 20/22/20 21/23/21
f 24/25/23 22/24/22 21/23/21
f 21/23/21 23/26/24 24/25/23
f 25/27/25 24/25/23 23/26/24
f 27/28/26 25/27/25 23/26/24
f 23/26/24 26/29/27 27/28/26
f 28/30/28 27/28/26 26/29/27
f 26/29/27 15/31/17 28/30/28
f 16/32/16 28/30/28 15/31/17
f 29/33/29 41/34/30 31/35/31
f 30/36/32 31/35/31 41/34/30
f 31/35/31 30/36/32 32/37/33
f 33/38/34 32/37/33 30/36/32
f 32/37/33 33/38/34 34/39/35
f 34/39/35 33/38/34 35/40/36
f 36/41/37 35/40/36 33/38/34
f 35/40/36 36/41/37 37/42/38
f 37/42/38 36/41/37 39/43/39
f 38/44/40 39/43/39 36/41/37
f 39/43/39 38/44/40 40/45/41
f 42/46/42 40/45/41 38/44/40
f 38/44/40 41/47/30 42/46/42
f 29/48/29 42/46/42 41/47/30
f 55/49/43 44/50/44 43/51/45
f 43/51/45 44/50/44 45/52/46
f 46/53/47 45/52/46 44/50/44
f 47/54/48 46/53/47 44/50/44
f 48/55/49 46/53/47 47/54/48
f 50/56/50 48/55/49 47/54/48
f 47/54/48 49/57/51 50/56/50
f 51/58/52 50/56/50 49/57/51
f 53/59/53 51/58/52 49/57/51
f 49/57/51 52/60/54 53/59/53
f 54/61/55 53/59/53 52/60/54
f 52/60/54 55/62/43 54/61/55
f 56/63/56 54/61/55 55/62/43
f 56/63/56 55/62/43 43/64/45
f 59/65/57 57/66/57 58/67/57
f 57/66/57 60/68/57 58/67/57
f 60/68/57 61/69/57 58/67/57
f 60/68/57 62/70/57 61/69/57
f 62/70/57 63/71/57 61/69/57
f 62/70/57 64/72/57 63/71/57
f 64/72/57 65/73/57 63/71/57
f 64/72/57 66/74/57 65/73/57
f 66/74/57 67/75/57 65/73/57
f 66/74/57 68/76/57 67/75/57
f 68/76/57 69/77/57 67/75/57
f 68/76/57 70/78/57 69/77/57
f 70/78/57 71/79/57 69/77/57
f 70/78/57 72/80/57 71/79/57
f 72/80/57 73/81/57 71/79/57
f 74/82/57 73/81/57 72/80/57
f 75/83/57 73/81/57 74/82/57
f 76/84/57 75/83/57 74/82/57
f 79/67/57 77/65/57 78/69/57
f 78/69/57 77/65/57 80/71/57
f 77/65/57 81/66/57 80/71/57
f 80/71/57 81/66/57 82/73/57
f 81/66/57 83/68/57 82/73/57
f 82/73/57 83/68/57 84/75/57
f 83/68/57 85/70/57 84/75/57
f 84/75/57 85/70/57 86/77/57
f 85/70/57 87/72/57 86/77/57
f 86/77/57 87/72/57 88/79/57
f 87/72/57 89/74/57 88/79/57
f 90/81/57 88/79/57 89/74/57
f 91/76/57 90/81/57 89/74/57
f 92/83/57 90/81/57 91/76/57
f 93/78/57 92/83/57 91/76/57
f 94/84/57 92/83/57 93/78/57
f 95/80/57 94/84/57 93/78/57
f 96/82/57 94/84/57 95/80/57
f 98/69/58 97/85/59 99/86/60
f 99/86/60 97/85/59 101/87/61
f 97/85/59 100/88/62 101/87/61
f 101/87/61 100/88/62 103/89/63
f 100/88/62 102/90/58 103/89/63
f 105/91/64 103/89/63 102/90/58
f 102/90/58 104/92/65 105/91/64
f 106/82/60 105/91/64 104/92/65
f 104/92/65 107/93/66 106/82/60
f 108/88/67 111/94/68 109/95/69
f 108/88/67 110/96/70 111/94/68
f 110/96/70 113/97/65 111/94/68
f 110/96/70 112/98/68 113/97/65
f 112/98/68 115/99/58 113/97/65
f 112/98/68 114/100/71 115/99/58
f 114/100/71 117/101/68 115/99/58
f 116/102/72 117/101/68 114/100/71
f 120/80/57 118/82/57 119/78/57
f 119/78/57 118/82/57 121/76/57
f 118/82/57 122/84/57 121/76/57
f 121/76/57 122/84/57 123/74/57
f 122/84/57 124/83/57 123/74/57
f 123/74/57 124/83/57 125/72/57
f 124/83/57 126/81/57 125/72/57
f 125/72/57 126/81/57 127/70/57
f 126/81/57 128/79/57 127/70/57
f 129/68/57 127/70/57 128/79/57
f 128/79/57 130/77/57 129/68/57
f 131/66/57 129/68/57 130/77/57
f 130/77/57 132/75/57 131/66/57
f 133/65/57 131/66/57 132/75/57
f 134/73/57 133/65/57 132/75/57
f 135/67/57 133/65/57 134/73/57
f 136/71/57 135/67/57 134/73/57
f 137/69/57 135/67/57 136/71/57
f 141/103/73 138/80/58 139/104/60
f 139/104/60 140/105/62 141/103/73
f 141/103/73 140/105/62 143/106/61
f 140/105/62 142/107/58 143/106/61
f 143/106/61 142/107/58 145/108/63
f 142/107/58 144/109/65 145/108/63
f 147/110/64 145/108/63 144/109/65
f 146/111/71 147/110/64 144/109/65
f 148/67/60 147/110/64 146/111/71
f 151/82/57 149/84/57 150/80/57
f 149/84/57 152/83/57 150/80/57
f 150/80/57 152/83/57 153/78/57
f 152/83/57 154/81/57 153/78/57
f 153/78/57 154/81/57 155/76/57
f 154/81/57 156/79/57 155/76/57
f 155/76/57 156/79/57 157/74/57
f 156/79/57 158/77/57 157/74/57
f 157/74/57 158/77/57 159/72/57
f 158/77/57 160/75/57 159/72/57
f 159/72/57 160/75/57 161/70/57
f 162/73/57 161/70/57 160/75/57
f 161/70/57 162/73/57 163/68/57
f 164/71/57 163/68/57 162/73/57
f 165/66/57 163/68/57 164/71/57
f 166/69/57 165/66/57 164/71/57
f 167/65/57 165/66/57 166/69/57
f 168/67/57 167/65/57 166/69/57
f 170/67/60 169/110/74 171/112/75
f 169/110/74 172/108/61 171/112/75
f 171/112/75 172/108/61 173/109/76
f 172/108/61 174/106/71 173/109/76
f 173/109/76 174/106/71 175/113/76
f 176/114/58 175/113/76 174/106/71
f 175/113/76 176/114/58 177/115/77
f 178/80/62 177/115/77 176/114/58
f 179/116/78 177/115/77 178/80/62
f 182/117/79 180/118/80 220/119/81
f 180/118/80 182/117/79 181/120/82
f 181/120/82 182/117/79 186/121/83
f 182/117/79 220/119/81 183/122/84
f 183/122/84 184/123/85 182/117/79
f 186/121/83 182/117/79 184/123/85
f 181/120/82 186/121/83 187/124/86
f 184/123/85 185/125/87 186/121/83
f 189/126/88 186/121/83 185/125/87
f 189/126/88 187/124/86 186/121/83
f 189/126/88 185/125/87 190/127/89
f 189/126/88 190/127/89 187/124/86
f 188/128/90 190/127/89 185/125/87
f 190/127/89 191/129/91 187/124/86
f 190/127/89 188/128/90 193/130/92
f 190/127/89 193/130/92 191/129/91
f 188/128/90 192/131/93 193/130/92
f 193/130/92 194/132/94 191/129/91
f 191/129/91 194/132/94 195/133/95
f 192/131/93 194/132/94 193/130/92
f 194/132/94 192/131/93 196/134/96
f 194/132/94 196/134/96 195/133/95
f 198/135/97 196/134/96 192/131/93
f 192/131/93 197/136/98 198/135/97
f 195/133/95 196/134/96 199/137/99
f 196/134/96 198/135/97 200/138/100
f 198/135/97 197/136/98 200/138/100
f 196/134/96 200/138/100 199/137/99
f 199/137/99 200/138/100 202/139/101
f 204/140/102 199/137/99 202/139/101
f 197/136/98 203/141/103 200/138/100
f 201/142/104 203/141/103 197/136/98
f 203/141/103 202/139/101 200/138/100
f 203/141/103 201/142/104 202/139/101
f 205/143/105 204/140/102 202/139/101
f 201/142/104 205/143/105 202/139/101
f 204/140/102 205/143/105 207/144/106
f 210/145/107 204/140/102 207/144/106
f 201/142/104 208/146/108 205/143/105
f 206/147/109 208/146/108 201/142/104
f 208/146/108 207/144/106 205/143/105
f 207/144/106 209/148/110 210/145/107
f 208/146/108 206/147/109 207/144/106
f 206/147/109 209/148/110 207/144/106
f 210/145/107 209/148/110 211/149/111
f 209/148/110 206/147/109 213/150/112
f 213/150/112 211/149/111 209/148/110
f 212/151/113 213/150/112 206/147/109
f 211/149/111 213/150/112 214/152/114
f 214/152/114 215/153/115 211/149/111
f 212/151/113 214/152/114 213/150/112
f 214/152/114 217/154/116 215/153/115
f 217/154/116 255/155/117 215/153/115
f 216/156/118 214/152/114 212/151/113
f 214/152/114 216/156/118 217/154/116
f 180/157/80 218/158/119 220/159/81
f 218/158/119 219/160/120 220/159/81
f 183/161/84 220/159/81 221/162/121
f 221/162/121 220/159/81 222/163/122
f 223/164/123 222/163/122 220/159/81
f 223/164/123 220/159/81 219/160/120
f 225/165/124 228/166/125 222/163/122
f 222/163/122 223/164/123 225/165/124
f 224/167/126 226/168/127 219/160/120
f 219/160/120 226/168/127 223/164/123
f 227/169/128 225/165/124 223/164/123
f 227/169/128 223/164/123 226/168/127
f 227/169/128 229/170/129 225/165/124
f 227/169/128 226/168/127 229/170/129
f 224/167/126 231/171/130 226/168/127
f 231/171/130 229/170/129 226/168/127
f 231/171/130 224/167/126 230/172/131
f 229/170/129 228/166/125 225/165/124
f 228/166/125 229/170/129 232/173/132
f 231/171/130 232/173/132 229/170/129
f 231/171/130 230/172/131 235/174/133
f 231/171/130 235/174/133 232/173/132
f 233/175/134 235/174/133 230/172/131
f 235/174/133 234/176/135 232/173/132
f 232/173/132 234/176/135 238/177/136
f 235/174/133 236/178/137 234/176/135
f 233/175/134 236/178/137 235/174/133
f 236/178/137 238/177/136 234/176/135
f 233/175/134 239/179/138 236/178/137
f 237/180/139 239/179/138 233/175/134
f 238/177/136 236/178/137 240/181/140
f 240/181/140 241/182/141 238/177/136
f 239/179/138 240/181/140 236/178/137
f 240/181/140 239/179/138 241/182/141
f 242/183/142 241/182/141 239/179/138
f 237/180/139 242/183/142 239/179/138
f 241/182/141 242/183/142 243/184/143
f 243/184/143 246/185/144 241/182/141
f 237/180/139 245/186/145 242/183/142
f 244/187/146 245/186/145 237/180/139
f 245/186/145 243/184/143 242/183/142
f 243/184/143 245/186/145 246/185/144
f 247/188/147 246/185/144 245/186/145
f 244/187/146 247/188/147 245/186/145
f 246/185/144 247/188/147 248/189/148
f 244/187/146 249/190/149 247/188/147
f 256/191/150 249/190/149 244/187/146
f 249/190/149 248/189/148 247/188/147
f 248/189/148 249/190/149 251/192/151
f 251/192/151 250/193/152 248/189/148
f 249/190/149 256/191/150 252/194/153
f 252/194/153 251/192/151 249/190/149
f 250/193/152 251/192/151 253/195/154
f 251/192/151 252/194/153 253/195/154
f 253/195/154 254/196/155 250/193/152
f 255/197/117 253/195/154 252/194/153
f 217/198/116 216/199/118 254/196/155
f 254/196/155 253/195/154 217/198/116
f 253/195/154 255/197/117 217/198/116
f 256/200/150 219/201/120 218/202/119
f 256/200/150 218/202/119 180/203/80
f 256/200/150 224/204/126 219/201/120
f 256/200/150 180/203/80 181/205/82
f 256/200/150 181/205/82 187/206/86
f 256/200/150 230/207/131 224/204/126
f 256/200/150 187/206/86 191/208/91
f 256/200/150 233/209/134 230/207/131
f 256/200/150 191/208/91 195/210/95
f 256/200/150 237/211/139 233/209/134
f 256/200/150 195/210/95 199/212/99
f 256/200/150 244/213/146 237/211/139
f 256/200/150 199/212/99 204/214/102
f 256/200/150 204/214/102 210/215/107
f 256/200/150 255/216/117 252/217/153
f 256/200/150 210/215/107 211/218/111
f 256/200/150 215/219/115 255/216/117
f 256/200/150 211/218/111 215/219/115
f 248/220/148 188/221/90 185/222/87
f 248/220/148 192/223/93 188/221/90
f 248/220/148 185/222/87 184/224/85
f 248/220/148 184/224/85 183/225/84
f 248/220/148 197/226/98 192/223/93
f 248/220/148 183/225/84 221/227/121
f 248/220/148 201/228/104 197/226/98
f 248/220/148 221/227/121 222/229/122
f 248/220/148 222/229/122 228/230/125
f 248/220/148 206/231/109 201/228/104
f 248/220/148 228/230/125 232/232/132
f 248/220/148 212/233/113 206/231/109
f 248/220/148 216/234/118 212/233/113
f 248/220/148 232/232/132 238/235/136
f 248/220/148 254/236/155 216/234/118
f 248/220/148 238/235/136 241/237/141
f 248/220/148 250/238/152 254/236/155
f 248/220/148 241/237/141 246/239/144
