# Blender 5.0.0
# www.blender.org
g SM_NewYorkH01Prop004Aa.001_SM_NewYorkH01Prop004Aa
v 0.426821 0.198641 0.697452
v -0.107181 0.200013 0.467035
v -0.128025 0.198641 0.540917
v 0.704802 0.200013 -0.287862
v 0.725646 0.198641 -0.361744
v 0.170800 0.198641 -0.518279
v 0.044950 0.189802 -0.545823
v 0.123333 0.191028 -0.523135
v 0.035949 0.188434 -0.534624
v -0.251535 0.188434 0.484372
v -0.171031 0.191028 0.520249
v -0.249714 0.189802 0.498624
v 0.567276 0.198832 0.716334
v 0.559523 0.198346 0.729184
v 0.468176 0.186799 0.708028
v 0.567276 0.198832 0.716334
v 0.468176 0.186799 0.708028
v 0.363808 0.188171 0.671994
v -0.064349 0.188598 0.554657
v -0.181614 0.190283 0.514628
v -0.251535 0.188434 0.484372
v -0.042874 0.188526 0.560432
v -0.251535 0.188434 0.484372
v 0.061464 0.188812 0.590729
v -0.251535 0.188434 0.484372
v 0.183244 0.188715 0.626763
v 0.766430 0.186799 -0.349146
v 0.855365 0.198346 -0.319439
v 0.855259 0.198832 -0.304433
v 0.658618 0.188171 -0.372973
v 0.766430 0.186799 -0.349146
v 0.855259 0.198832 -0.304433
v 0.443772 0.189699 -0.437848
v 0.561626 0.187092 -0.409282
v 0.445604 0.193633 -0.419528
v 0.561626 0.187092 -0.409282
v 0.658618 0.188171 -0.372973
v 0.445604 0.193633 -0.419528
v 0.658618 0.188171 -0.372973
v 0.855259 0.198832 -0.304433
v 0.445604 0.193633 -0.419528
v 0.328167 0.188377 -0.470862
v 0.443772 0.189699 -0.437848
v 0.445604 0.193633 -0.419528
v 0.232267 0.188598 -0.496713
v 0.328167 0.188377 -0.470862
v 0.445604 0.193633 -0.419528
v 0.122125 0.405584 -0.457120
v -0.004046 0.399887 -0.416912
v 0.021621 0.404615 -0.487253
v -0.234963 0.391131 0.422531
v -0.220067 0.388779 0.349053
v -0.133533 0.392472 0.449399
v 0.549766 0.407738 -0.340209
v 0.724377 0.405968 -0.292316
v 0.708035 0.400207 -0.219416
v 0.122125 0.405584 -0.457120
v 0.323973 0.406642 -0.405621
v -0.004046 0.399887 -0.416912
v -0.220067 0.388779 0.349053
v 0.065443 0.393568 0.511082
v -0.133533 0.392472 0.449399
v 0.490340 0.393057 0.552515
v 0.466123 0.395639 0.623428
v 0.292153 0.395073 0.573255
v 0.521526 0.092138 0.812991
v 0.529708 0.099496 0.746681
v 0.807466 0.096925 -0.319854
v 0.848885 0.078763 -0.475959
v 0.850503 0.085168 -0.416372
v 0.472194 0.078763 0.859238
v 0.518471 0.096926 0.704499
v 0.504716 0.085168 0.809282
v 0.525869 0.097216 0.744851
v 0.517578 0.089668 0.812639
v 0.504716 0.085168 0.809282
v 0.513072 0.092947 0.739841
v 0.834862 0.097216 -0.350386
v 0.850503 0.085168 -0.416372
v 0.863222 0.089668 -0.412512
v 0.821333 0.092947 -0.352803
v 0.835522 0.101709 -0.351821
v 0.863215 0.094347 -0.412631
v 0.149956 0.200013 -0.444397
v 0.447665 0.200013 0.623570
v 0.262090 0.186358 0.652144
v -0.251535 0.188434 0.484372
v 0.567276 0.198832 0.716334
v 0.035949 0.188434 -0.534624
v 0.445604 0.193633 -0.419528
v 0.137726 0.174804 -0.528342
v 0.708035 0.400207 -0.219416
v 0.323973 0.406642 -0.405621
v 0.549766 0.407738 -0.340209
v -0.004046 0.399887 -0.416912
v 0.065443 0.393568 0.511082
v 0.490340 0.393057 0.552515
v 0.292153 0.395073 0.573255
v -0.220067 0.388779 0.349053
v 0.431266 0.006838 0.712495
v 0.429434 0.108141 0.714335
v 0.402119 0.006295 0.813836
v 0.401309 0.108142 0.817763
v 0.496284 0.108147 0.843923
v 0.525771 0.108146 0.740776
v -0.435947 0.006838 0.467833
v -0.437779 0.108141 0.469674
v -0.465095 0.006295 0.569174
v -0.465904 0.108142 0.573101
v -0.370929 0.108147 0.599261
v -0.341443 0.108146 0.496114
v 0.765413 0.006295 -0.473877
v 0.766775 0.108142 -0.477648
v 0.736698 0.108141 -0.374771
v 0.832649 0.108146 -0.346963
v 0.860642 0.007014 -0.447830
v 0.861419 0.108147 -0.450312
v 0.530001 0.103505 0.739100
v 0.128322 0.393859 -0.544474
v 0.864297 0.208641 -0.323660
v 0.738285 0.363943 -0.379783
v 0.693236 0.195592 -0.382818
v 0.311215 0.396461 -0.484096
v 0.560898 0.200796 0.725785
v -0.251560 0.187760 0.484343
v 0.567053 0.199769 0.716295
v -0.208799 0.195386 0.308279
v -0.144821 0.191664 0.108968
v 0.634167 0.201602 0.470218
v -0.082573 0.189523 -0.116999
v 0.744905 0.202323 0.085169
v -0.019651 0.195386 -0.362164
v 0.803394 0.201502 -0.136345
v 0.035918 0.187578 -0.534625
v 0.855050 0.199365 -0.304502
v -0.006572 0.007014 -0.692492
v -0.034565 0.108146 -0.591625
v -0.005795 0.108147 -0.694974
v -0.101800 0.006294 -0.718538
v -0.100438 0.108142 -0.722310
v -0.130516 0.108141 -0.619433
v 0.910830 0.871044 -0.461680
v 0.950878 0.847133 -0.544494
v 0.882971 0.792405 -0.401357
v 0.959668 0.767146 -0.570210
v 0.867344 0.094132 -0.418367
v 0.689913 0.185367 -0.367143
v 0.560470 0.188171 -0.408367
v 0.043582 0.191225 -0.544438
v 0.496468 0.108144 0.844119
v 0.400880 0.108144 0.817151
v 0.525592 0.108144 0.740888
v 0.430004 0.108144 0.713920
v -0.370746 0.108144 0.599457
v -0.466333 0.108144 0.572489
v -0.341622 0.108144 0.496226
v -0.437210 0.108144 0.469259
v 0.832554 0.108144 -0.347152
v 0.736967 0.108144 -0.374119
v 0.861678 0.108144 -0.450383
v 0.766090 0.108144 -0.477350
v -0.034660 0.108144 -0.591814
v -0.130247 0.108144 -0.618781
v -0.005536 0.108144 -0.695045
v -0.101124 0.108144 -0.722012
v 0.447665 0.200013 0.623570
v -0.107181 0.200013 0.467035
v 0.704802 0.200013 -0.287862
v 0.149956 0.200013 -0.444397
v 0.709300 0.389341 -0.219828
v -0.005238 0.393634 -0.417645
v 0.491068 0.389113 0.552959
v -0.221528 0.383815 0.348893
v -0.264626 0.391148 0.504766
v -0.177931 0.393859 0.541049
v 0.561706 0.396702 0.737061
v 0.388178 0.195592 0.698481
v 0.393533 0.185367 0.683380
v 0.261635 0.188171 0.650872
v -0.263948 0.197092 0.504474
v 0.009548 0.396462 0.585161
v 0.428169 0.363943 0.719438
v 0.540244 0.792406 0.813451
v 0.532468 0.871044 0.879440
v 0.568074 0.808341 0.787464
v 0.561952 0.895933 0.855930
v 0.523328 0.847133 0.970973
v 0.552672 0.899733 0.988625
v 0.517381 0.767145 0.997491
v 0.545599 0.774259 1.034369
v 0.492305 0.803779 1.087534
v 0.490239 0.906769 1.062234
v 0.491990 0.970506 1.007147
v -0.095694 0.828377 0.944621
v -0.144213 0.742671 0.921091
v 0.020569 0.088367 0.763196
v -0.631696 0.812247 0.760182
v -0.646281 0.778476 0.686677
v -0.599194 0.772422 0.671228
v -0.591340 0.848657 0.649609
v -0.631405 0.900368 0.651668
v -0.621709 0.907830 0.740252
v -0.591967 0.970174 0.709403
v -0.325529 0.917161 0.845080
v 0.508329 0.985609 0.932460
v 0.521690 0.858123 0.749328
v 0.034189 0.223074 0.519331
v 0.522241 0.965628 0.840575
v 0.084280 0.864905 0.593185
v 0.073664 0.949310 0.652427
v -0.018878 1.012115 0.789855
v 0.060252 1.001102 0.725944
v -0.527156 0.967363 0.548562
v -0.471760 0.852395 0.461594
v -0.530264 0.806743 0.468106
v -0.566394 0.896979 0.535197
v -0.552534 0.872214 0.570568
v -0.568814 0.986887 0.636436
v -0.518814 0.791705 0.506406
v -0.457868 0.097532 0.453664
v 0.866640 0.096096 -0.339623
v 0.893115 0.808342 -0.364658
v 0.869938 0.100832 -0.310495
v 0.923680 0.895933 -0.426227
v 0.801907 0.100027 -0.302451
v 0.985121 0.899733 -0.544206
v 0.881798 0.965628 -0.433892
v 0.917962 0.985609 -0.519499
v 0.945699 0.967408 -0.591305
v 0.833640 0.858122 -0.356387
v 0.428645 1.001106 -0.577554
v 0.394056 1.012116 -0.673714
v 0.400614 0.949355 -0.508130
v 0.378230 0.864996 -0.452138
v 0.296177 0.223232 -0.415508
v -0.164319 0.102472 -0.563526
v 0.109592 0.963362 -0.868497
v -0.163437 0.852070 -0.631089
v -0.165020 0.967361 -0.734914
v -0.209935 0.806562 -0.667244
v -0.205529 0.896992 -0.743912
v -0.205833 0.102156 -0.599319
v -0.180610 0.791215 -0.693729
v -0.188313 0.097446 -0.622894
v -0.174956 0.872153 -0.766662
v -0.200054 0.900397 -0.877184
v -0.170391 0.848461 -0.856244
v -0.161784 0.772777 -0.876220
v -0.154543 0.986888 -0.831963
v -0.145845 0.945414 -0.928064
v -0.143122 0.809450 -0.969638
v -0.194693 0.778742 -0.914010
v -0.170214 0.087847 -0.709872
v -0.125102 0.082617 -0.740903
v -0.152596 0.090248 -0.683100
v 0.407952 0.828321 -0.846061
v 0.495746 0.744539 -0.813186
v 0.373290 0.088819 -0.642458
v 0.970419 0.906776 -0.639472
v 0.850390 0.081014 -0.484384
v 0.985633 0.807525 -0.659649
v 1.002998 0.774257 -0.586903
v 0.891840 0.087224 -0.415541
v -0.156011 0.097533 -0.616282
v -0.128101 0.199295 0.541198
v 0.170892 0.199354 -0.518592
v -0.257983 0.164142 0.401223
v 0.028578 0.195352 -0.563719
v -0.021410 0.144138 -0.443949
v -0.273207 0.087935 0.502218
v 0.564110 0.088635 0.740290
v 0.609309 0.156463 0.629006
v 0.564205 0.195707 0.741139
v 0.426729 0.199355 0.697765
v 0.725722 0.199295 -0.362025
v 0.867929 0.193915 -0.326005
v 0.834312 0.106453 -0.175510
v 0.042980 0.666093 -0.531542
v 0.360002 0.569197 -0.484954
v 0.338760 0.431671 -0.475901
v 0.742899 0.577306 -0.372350
v 0.785240 0.434448 -0.329468
v 0.805036 0.421101 -0.237446
v 0.810572 0.570917 -0.318719
v 0.725301 0.665872 -0.344873
v 0.795851 0.664908 -0.283721
v 0.744933 0.639943 0.045749
v 0.824546 0.594031 -0.220233
v 0.581978 0.621127 0.586640
v 0.436774 0.651929 0.681843
v -0.242621 0.651214 0.483762
v 0.438025 0.562973 0.709854
v 0.051814 0.553735 0.605018
v 0.534294 0.560732 0.694505
v 0.648389 0.559398 0.479296
v 0.520918 0.420984 0.675359
v 0.580334 0.417716 0.590792
v 0.041662 0.416400 0.579986
v -0.261664 0.409523 0.467940
v -0.262907 0.398045 0.304699
v -0.109528 0.389231 -0.217464
v -0.015885 0.422073 -0.506773
v -0.076269 0.426345 -0.372948
v 0.038401 0.425482 -0.547727
v -0.013895 0.663122 -0.507033
v -0.073909 0.649473 -0.378683
v 0.022932 0.669269 -0.517408
v -0.269374 0.654405 0.331636
v -0.143724 0.666753 -0.120453
v -0.256806 0.654638 0.458548
v -0.288644 0.445062 0.438124
v -0.252314 0.434583 0.492385
v -0.136310 0.105606 -0.551605
v -0.211438 0.734856 -0.605915
v -0.004404 0.952315 -0.576386
v -0.032134 0.105533 -0.503820
v 0.029023 0.754608 -0.515373
v 0.022242 1.018871 -0.540937
v -0.097935 1.462156 -0.619709
v -0.162330 1.524188 -0.680900
v -0.307786 1.864457 -0.731037
v -0.511992 1.922396 -0.786243
v -0.253602 1.123744 -0.665089
v -0.537376 1.862993 -0.799135
v -0.441750 0.105649 0.362635
v -0.422598 0.105473 0.413856
v -0.308653 0.105563 0.443977
v -0.487220 0.696951 0.437412
v -0.569153 1.119356 0.457400
v -0.333594 0.995293 0.512927
v -0.831075 1.711356 0.433137
v -0.879035 1.880873 0.425501
v -0.917236 1.895622 0.387516
v -0.861266 1.929187 0.422179
v -0.647687 1.864441 0.488394
v -0.566033 1.839034 0.471499
v -0.479248 1.492088 0.521976
v 0.635262 0.200602 0.467217
v 0.564933 0.208641 0.737450
v 0.710982 0.204153 0.202955
v 0.854048 0.200951 -0.315900
v 0.720730 0.213429 0.208618
v 0.588654 0.363752 0.700375
v 0.003838 0.421519 0.388826
v -0.211447 0.398429 0.316478
v -0.250157 0.191225 0.496728
v -0.202972 0.194690 0.286637
v -0.146630 0.190313 0.110965
v -0.072105 0.185499 -0.168684
v -0.025993 0.194691 -0.340667
v -0.043389 0.203400 -0.301531
v 0.035872 0.197091 -0.558249
v 0.033842 0.390514 -0.558631
v -0.024207 0.399562 -0.337296
v 0.205023 0.420649 -0.316209
v 0.573471 0.419489 -0.222672
v 0.860966 0.396068 -0.325532
v 0.495853 0.424293 0.327513
v 0.737419 0.399384 0.112520
v 0.864962 0.364092 -0.278486
v -0.197349 0.203400 0.244186
v 0.783361 0.502306 -0.002785
v 0.752803 0.415139 0.017872
v 0.737297 0.006838 -0.372244
v 0.831497 0.006170 -0.346400
v -0.129916 0.006838 -0.616906
v -0.035717 0.006170 -0.591061
v 0.496919 0.007014 0.841401
v 0.525084 0.006170 0.739694
v -0.370295 0.007014 0.596739
v -0.342130 0.006170 0.495032
v 0.558587 0.096096 0.752284
v 0.513072 0.092947 0.739841
v 0.522827 0.100027 0.686761
v 0.576622 0.100832 0.729175
v -0.437358 0.102469 0.404350
v 0.469374 0.078047 0.866284
v -0.491477 0.102155 0.413162
v -0.497233 0.085088 0.578617
v -0.488866 0.097449 0.442419
v -0.489885 0.090250 0.512411
v 0.505594 0.085079 0.807934
v 0.518031 0.094132 0.819785
v -0.518892 0.087848 0.526032
v 0.540392 0.087224 0.830178
v 0.835378 0.103505 -0.343324
v 0.821333 0.092947 -0.352803
v 0.850546 0.085079 -0.414765
v -0.271334 0.196053 0.505996
v 0.028007 0.088380 -0.561268
v 0.863298 0.087870 -0.327137
v 0.698190 0.392617 -0.180035
v 0.684071 0.387051 0.234371
v 0.801578 0.403363 -0.173764
v 0.724195 0.407329 -0.291387
v 0.804308 0.413100 -0.302834
v 0.740762 0.418718 -0.362594
v 0.021244 0.404517 -0.485877
v 0.052083 0.414110 -0.557319
v -0.016813 0.386937 -0.378359
v -0.031169 0.411329 -0.510410
v -0.139831 0.380171 -0.167364
v -0.214753 0.386048 0.325112
v -0.285474 0.395826 0.367529
v -0.234562 0.391067 0.421152
v 0.065443 0.393568 0.511082
v -0.262055 0.396950 0.491964
v 0.466355 0.395818 0.622672
v 0.442095 0.411025 0.691020
v 0.527689 0.402840 0.675458
v 0.499136 0.386911 0.525529
v 0.603459 0.403083 0.538225
v -0.171758 0.105675 -0.538566
v -0.196663 0.105569 -0.508956
v -0.205358 0.105559 -0.400617
v -0.126881 0.105166 -0.547135
v -0.090204 0.105051 -0.539880
v -0.053135 0.105616 -0.520287
v -0.026396 0.105446 -0.488406
v -0.009958 0.105632 -0.373965
v -0.230606 0.105552 -0.237943
v -0.030247 0.105408 -0.177208
v -0.273761 0.105557 -0.064250
v -0.070022 0.105569 -0.006770
v -0.125226 0.105581 0.159448
v -0.210451 0.104580 0.337310
v -0.327776 0.105551 0.106491
v -0.284420 0.105434 0.426965
v -0.391281 0.105559 0.258392
v -0.442734 0.105465 0.361316
v -0.430345 0.106073 0.400777
v -0.322765 0.107012 0.440128
v -0.404768 0.105223 0.422966
v -0.364857 0.105090 0.437414
v -0.303831 0.105580 0.042264
v -0.216744 0.105568 -0.303475
v -0.195138 0.105565 -0.515293
v -0.271699 0.926760 -0.603484
v -0.360751 1.262939 -0.656224
v -0.584966 1.856088 -0.785139
v -0.595886 1.909733 -0.772949
v -0.553522 1.954966 -0.761616
v -0.481290 1.967400 -0.733370
v -0.377077 1.947540 -0.712594
v -0.261648 1.868701 -0.678685
v -0.164980 1.664296 -0.597392
v 0.024892 1.029909 -0.350386
v 0.040923 0.761827 -0.297729
v -0.009913 0.105581 -0.371546
v -0.039592 0.105574 -0.118894
v -0.054118 0.742370 0.117735
v -0.177122 0.105581 0.287648
v -0.224746 0.767699 0.454197
v -0.277046 0.938568 0.503229
v -0.357230 1.270118 0.508915
v -0.175145 0.994726 0.353821
v -0.412103 1.477382 0.490068
v -0.344544 1.569858 0.297890
v -0.088721 1.011416 0.155828
v -0.008402 1.016508 -0.110558
v -0.171744 1.513278 -0.160502
v -0.299366 1.875375 -0.375942
v -0.442465 1.892583 0.117079
v -0.620567 1.914733 0.440440
v -0.686330 1.954166 0.411979
v -0.663402 2.010269 0.108264
v -0.774146 1.966166 0.413605
v -0.874119 1.958488 0.375057
v -0.806246 2.004160 0.061947
v -0.883712 1.956665 0.170789
v -0.921421 1.848347 0.367830
v -0.700585 1.360713 0.390661
v -0.554709 0.931822 0.387598
v -0.601290 1.100046 0.403117
v -0.434455 0.894782 0.110456
v -0.426356 1.110070 -0.106698
v -0.324387 0.910186 -0.287093
v -0.510902 1.319049 -0.133744
v -0.610770 1.838289 -0.757831
v -0.753918 1.933392 -0.362372
v -0.712579 1.973643 -0.444048
v -0.665759 2.006527 -0.434505
v -0.592575 2.017740 -0.397512
v -0.915744 1.878867 0.250921
v -0.535791 1.971798 0.092554
v -0.464546 1.998957 -0.368527
v -0.372647 1.946573 -0.336882
v -0.038422 0.676782 -0.483168
v 0.152914 0.726039 -0.230582
v 0.484332 0.728445 -0.219468
v 0.046071 0.680464 -0.532532
v 0.790219 0.680744 -0.313021
v 0.680510 0.711232 -0.120271
v 0.793133 0.682708 -0.147673
v 0.780434 0.662259 -0.087163
v -0.046337 0.713628 -0.000505
v 0.329471 0.753222 0.109592
v 0.568897 0.715511 0.267668
v 0.651068 0.654245 0.375905
v 0.301422 0.710836 0.494961
v 0.606317 0.635294 0.521040
v 0.526186 0.650514 0.669259
v 0.462597 0.667320 0.691700
v -0.024337 0.710515 0.355798
v -0.261692 0.664961 0.472362
v -0.281708 0.663637 0.354779
vn 0.0003 0.9999 0.0124
vn -0.0065 0.9999 0.0103
vn 0.0093 0.9998 -0.0184
vn 0.0095 0.9998 -0.0176
vn 0.0481 -0.9949 -0.0889
vn -0.0079 -0.9956 0.0930
vn 0.1257 -0.9915 0.0346
vn 0.1515 -0.8789 -0.4523
vn -0.1119 -0.8819 0.4580
vn -0.0699 -0.9744 0.2138
vn -0.0748 -0.9704 0.2297
vn -0.1308 -0.8443 0.5196
vn -0.0450 -0.9759 0.2135
vn -0.0711 -0.9598 0.2715
vn 0.0310 -0.9977 -0.0606
vn 0.0107 -0.9994 0.0322
vn 0.0130 -0.9965 -0.0825
vn 0.0258 -0.9972 -0.0704
vn -0.0015 -0.9990 0.0450
vn -0.0044 -0.9996 0.0276
vn -0.0273 -0.9943 0.1034
vn -0.0261 -0.9942 0.1043
vn 0.0378 -0.9934 -0.1083
vn 0.0379 -0.9934 -0.1083
vn 0.0285 -0.9930 -0.1149
vn 0.3459 -0.9362 -0.0630
vn 0.2628 -0.9361 0.2338
vn 0.0748 -0.9740 -0.2137
vn 0.0714 -0.9703 -0.2312
vn 0.1330 -0.9047 -0.4048
vn -0.1255 -0.8675 0.4813
vn -0.1578 -0.7148 0.6813
vn -0.1353 -0.8623 0.4879
vn 0.0329 -0.9951 -0.0936
vn 0.0009 -0.9993 0.0375
vn -0.8454 -0.0999 0.5247
vn -0.6303 -0.3208 -0.7070
vn 0.1200 -0.6306 -0.7668
vn -0.6932 0.3254 0.6431
vn 0.4736 -0.8398 0.2656
vn 0.4492 0.3211 0.8337
vn 0.7956 0.4166 -0.4398
vn 0.8405 -0.5365 0.0758
vn -0.2457 -0.8730 0.4214
vn -0.6235 -0.2957 -0.7237
vn 0.0944 -0.6368 -0.7652
vn -0.6809 0.3430 0.6471
vn 0.4763 -0.8475 0.2345
vn 0.4376 0.3904 0.8100
vn 0.7973 0.4123 -0.4408
vn 0.8460 -0.5274 0.0783
vn -0.8992 0.3474 0.2661
vn -0.2545 0.3219 -0.9119
vn -0.0423 -0.8841 -0.4654
vn -0.2821 -0.8688 0.4070
vn 0.4512 -0.3947 0.8004
vn -0.1075 -0.6544 0.7485
vn 0.9616 -0.1335 -0.2399
vn 0.7989 0.3863 -0.4610
vn 0.8739 -0.1321 -0.4678
vn 0.9655 0.1360 0.2223
vn 0.9781 -0.1409 -0.1535
vn 0.9841 -0.1020 -0.1453
vn 0.8670 0.4961 -0.0459
vn -0.3474 -0.0427 0.9367
vn -0.5211 0.6006 -0.6065
vn 0.1803 0.7094 -0.6814
vn -0.3981 -0.6101 -0.6851
vn 0.3241 0.2343 -0.9165
vn 0.1816 0.6772 -0.7130
vn 0.7481 0.4854 -0.4524
vn 0.9713 0.2121 0.1076
vn 0.6651 -0.6241 -0.4100
vn 0.0473 -0.4690 -0.8819
vn 0.1324 -0.7181 -0.6832
vn 0.5143 -0.8035 -0.2999
vn 0.1687 -0.6413 -0.7485
vn -0.3214 -0.9344 0.1536
vn -0.1550 -0.6445 0.7488
vn -0.8420 -0.4460 0.3036
vn 0.0259 -0.9997 -0.0048
vn 0.0277 -0.9996 -0.0086
vn 0.0228 -0.9991 -0.0368
vn 0.0191 -0.9998 -0.0060
vn 0.0212 -0.9998 -0.0057
vn 0.0177 -0.9998 -0.0016
vn 0.0266 -0.9996 -0.0030
vn 0.0161 -0.9998 0.0084
vn 0.0059 -0.9998 0.0204
vn 0.0067 -0.9989 0.0474
vn 0.0166 -0.9997 0.0186
vn 0.7715 -0.4010 0.4939
vn 0.9624 -0.1352 -0.2357
vn 0.4573 -0.3647 0.8111
vn 0.8062 0.3645 -0.4660
vn -0.5243 -0.8184 -0.2353
vn -0.8975 0.3570 0.2590
vn -0.2934 -0.8675 0.4018
vn 0.5837 -0.5186 0.6248
vn 0.6501 -0.3441 0.6774
vn 0.9516 -0.0831 0.2959
vn 0.7482 -0.2450 0.6166
vn 0.7364 0.4673 0.4892
vn 0.2880 -0.1467 -0.9463
vn -0.1919 -0.9345 -0.2999
vn 0.0031 1.0000 -0.0046
vn 0.0040 1.0000 -0.0038
vn 0.0053 1.0000 -0.0017
vn 0.0053 1.0000 0.0017
vn 0.0040 1.0000 -0.0039
vn 0.0035 1.0000 -0.0043
vn 0.0055 1.0000 -0.0005
vn 0.0043 1.0000 0.0035
vn -0.0005 1.0000 -0.0055
vn 0.0001 -0.9999 -0.0123
vn 0.0001 -1.0000 -0.0091
vn 0.0048 -0.9999 -0.0094
vn 0.0096 -0.9999 -0.0038
vn -0.2067 0.6959 0.6878
vn -0.6511 0.6277 0.4267
vn -0.2271 0.1633 0.9601
vn 0.4792 0.5088 0.7152
vn -0.2291 0.6513 0.7234
vn 0.3599 -0.6174 0.6995
vn 0.9240 0.0867 0.3724
vn -0.4160 -0.4299 0.8014
vn -0.1999 -0.6991 0.6865
vn 0.5110 -0.7772 0.3672
vn -0.0632 -0.8771 0.4762
vn 0.9251 -0.3733 0.0691
vn 0.9851 -0.0527 -0.1635
vn 0.9902 0.1390 0.0095
vn 0.5119 -0.3622 -0.7789
vn 0.9722 0.0935 0.2145
vn 0.9782 -0.1254 0.1653
vn 0.9492 -0.2710 -0.1602
vn 0.0638 -0.5536 0.8303
vn 0.2758 0.0708 0.9586
vn 0.3022 0.4204 0.8555
vn 0.2758 0.8343 0.4774
vn -0.2376 -0.2282 0.9442
vn -0.2863 0.1389 0.9480
vn -0.3500 -0.1289 0.9278
vn -0.4182 -0.5867 0.6935
vn -0.7711 0.0112 0.6366
vn -0.9427 -0.0450 -0.3306
vn -0.8356 -0.4430 -0.3249
vn -0.1667 -0.6836 -0.7105
vn -0.6241 -0.0108 -0.7813
vn -0.6667 -0.1867 -0.7215
vn -0.9177 0.1846 -0.3516
vn -0.8523 -0.3197 -0.4140
vn -0.7447 0.3820 0.5472
vn -0.5153 0.7739 0.3682
vn -0.2276 0.5109 0.8290
vn -0.0524 0.9827 0.1779
vn -0.4658 0.8743 -0.1362
vn 0.5184 0.8536 0.0504
vn 0.5769 0.7310 -0.3646
vn 0.4958 0.2917 -0.8180
vn 0.2716 -0.1318 -0.9533
vn 0.2222 0.3021 -0.9270
vn 0.1201 0.9329 -0.3395
vn 0.2170 0.7076 -0.6725
vn -0.3166 0.7469 -0.5847
vn -0.0315 0.2839 -0.9583
vn 0.1929 -0.7402 -0.6441
vn -0.7435 -0.0782 -0.6642
vn -0.8222 -0.4330 -0.3694
vn -0.8513 0.0087 -0.5247
vn -0.9430 -0.2985 -0.1469
vn -0.2977 -0.9054 0.3028
vn -0.0360 -0.9993 -0.0122
vn 0.8516 -0.4959 -0.1697
vn 0.7331 -0.2522 0.6316
vn 0.7840 0.0805 0.6156
vn 0.8670 0.1279 0.4816
vn -0.0965 -0.3536 0.9304
vn 0.1376 0.3879 0.9114
vn -0.2404 0.0711 0.9681
vn 0.3128 0.7644 0.5638
vn 0.9419 0.1861 0.2796
vn 0.4849 0.8601 0.1584
vn 0.5463 0.7783 -0.3096
vn 0.0135 0.9885 -0.1505
vn -0.0657 0.9463 0.3164
vn -0.2033 0.6997 0.6849
vn -0.2939 0.2966 0.9087
vn -0.5867 0.3982 0.7051
vn -0.5957 -0.5384 0.5961
vn 0.1330 0.6594 -0.7400
vn -0.5426 0.7767 0.3197
vn -0.9774 0.0615 0.2022
vn -0.9495 -0.3045 0.0759
vn -0.9963 0.0752 -0.0425
vn -0.8898 -0.0120 -0.4561
vn 0.0050 -0.7923 -0.6101
vn -0.1054 -0.9655 -0.2383
vn -0.9587 -0.1544 -0.2388
vn -0.9558 0.1571 -0.2484
vn -0.9923 -0.1163 -0.0434
vn -0.4276 0.8876 -0.1710
vn -0.2725 0.5847 -0.7641
vn -0.3073 -0.0491 -0.9503
vn -0.9672 -0.1301 -0.2184
vn -0.9300 -0.0530 0.3638
vn -0.0478 -0.5781 -0.8146
vn -0.9217 -0.3877 0.0099
vn -0.5451 -0.6767 0.4950
vn 0.2242 -0.2701 -0.9364
vn 0.2827 0.1522 -0.9471
vn 0.2688 -0.2752 -0.9230
vn 0.6993 0.4110 -0.5848
vn 0.2398 -0.7596 -0.6046
vn 0.7620 0.0172 -0.6473
vn 0.9199 -0.1310 0.3697
vn 0.7934 -0.2962 0.5318
vn -0.0901 0.9404 0.3278
vn 0.1196 0.8947 -0.4304
vn -0.7833 0.4907 0.3817
vn -0.9558 0.1470 -0.2548
vn -0.6617 -0.6508 0.3722
vn -0.3237 0.4620 -0.8257
vn -0.9536 -0.0023 -0.3011
vn 0.4651 0.6113 0.6403
vn 0.2919 -0.6161 0.7315
vn 0.9563 0.0808 0.2809
vn 0.6431 0.5737 -0.5073
vn -0.1127 0.8933 0.4350
vn 0.2005 0.8277 -0.5241
vn 0.9214 -0.2815 0.2678
vn 0.6305 -0.6578 -0.4121
vn -0.4288 -0.6351 -0.6425
vn -0.2959 0.1610 -0.9415
vn -0.2411 0.5393 -0.8068
vn 0.2666 0.1638 -0.9498
vn 0.2696 0.0597 -0.9611
vn 0.4609 0.1547 -0.8739
vn 0.7244 -0.2432 -0.6450
vn 0.9815 -0.1780 0.0706
vn 0.9890 0.1380 0.0523
vn 0.8556 0.0162 -0.5174
vn 0.7398 0.6469 -0.1848
vn -0.0226 0.8345 -0.5505
vn 0.8267 0.3697 0.4242
vn 0.9676 -0.0505 0.2476
vn 0.9689 0.2322 0.0859
vn 0.7996 0.0403 -0.5991
vn 0.9289 0.0449 0.3677
vn 0.7573 0.1443 0.6369
vn -0.0409 0.5149 0.8563
vn -0.4135 0.2120 0.8855
vn -0.0721 0.0510 0.9961
vn -0.2703 0.0923 0.9584
vn 0.7201 0.5667 0.4004
vn 0.5090 0.0313 0.8602
vn -0.6395 -0.2488 0.7275
vn 0.4616 -0.0836 0.8832
vn 0.7186 -0.4027 0.5669
vn -0.1548 -0.5568 0.8161
vn -0.2634 -0.0232 0.9644
vn -0.8985 0.1953 0.3931
vn -0.8890 0.4402 -0.1260
vn -0.9057 -0.2216 -0.3614
vn -0.6527 0.4853 -0.5818
vn -0.5485 0.4342 -0.7146
vn -0.9038 0.3921 -0.1715
vn -0.6951 -0.0363 -0.7180
vn -0.8500 0.5267 0.0092
vn -0.8739 0.4599 -0.1574
vn -0.9653 -0.2560 -0.0521
vn -0.7731 0.1798 0.6083
vn -0.9570 -0.2401 0.1631
vn -0.0391 -0.0902 -0.9952
vn -0.8504 -0.1207 -0.5120
vn -0.1495 -0.1009 -0.9836
vn 0.5922 -0.0471 -0.8044
vn 0.7856 -0.0668 -0.6152
vn 0.9264 -0.0280 -0.3754
vn 0.9255 0.1168 -0.3602
vn 0.5514 0.0864 -0.8298
vn 0.9097 0.2300 -0.3459
vn 0.5028 0.3052 -0.8087
vn 0.7706 0.5614 -0.3016
vn 0.4062 0.8098 -0.4234
vn 0.1039 0.3877 -0.9159
vn 0.1185 0.8969 -0.4260
vn -0.0595 0.0018 -0.9982
vn -0.0828 -0.1795 -0.9803
vn -0.8145 -0.2387 -0.5288
vn -0.7628 -0.3744 -0.5272
vn -0.8171 -0.1716 -0.5504
vn -0.5271 -0.0794 -0.8461
vn -0.6298 0.3825 -0.6760
vn -0.2594 0.7905 -0.5548
vn -0.5921 -0.1187 0.7970
vn -0.9680 -0.2108 -0.1366
vn -0.6506 -0.1072 0.7518
vn -0.9472 -0.2857 0.1457
vn -0.0455 -0.0336 0.9984
vn 0.2725 -0.0831 0.9586
vn 0.5284 0.0217 0.8487
vn 0.7341 -0.0476 0.6774
vn 0.5598 0.1892 0.8067
vn -0.5537 -0.1884 0.8111
vn -0.9194 -0.3928 0.0184
vn -0.9554 -0.1531 0.2527
vn -0.6009 -0.2239 0.7673
vn 0.0913 0.0911 0.9916
vn -0.8608 0.2491 0.4438
vn 0.6944 0.2686 0.6676
vn -0.5156 0.0245 0.8565
vn -0.4585 0.8455 0.2738
vn -0.3841 0.5124 0.7681
vn 0.0283 0.3083 0.9509
vn -0.0275 0.8452 0.5337
vn 0.4186 0.7172 0.5571
vn 0.5915 0.4290 0.6827
vn 0.7259 -0.6577 0.2010
vn 0.8537 -0.4782 0.2063
vn 0.6270 -0.7630 0.1571
vn 0.0579 0.9975 0.0401
vn -0.0526 0.9980 0.0350
vn -0.6120 0.7420 -0.2737
vn -0.8736 -0.3797 -0.3044
vn -0.8604 -0.4635 -0.2120
vn -0.5936 -0.7916 -0.1452
vn -0.9722 -0.0555 -0.2273
vn -0.9547 -0.1924 -0.2270
vn -0.8438 -0.4536 -0.2869
vn -0.0256 0.9980 -0.0585
vn -0.5641 0.7892 -0.2428
vn 0.0414 0.9976 -0.0554
vn 0.4041 0.8843 0.2340
vn 0.8776 -0.3122 0.3638
vn 0.0552 -0.9973 0.0485
vn -0.0426 -0.9791 0.1987
vn 0.0712 -0.9972 -0.0215
vn 0.2625 -0.9432 -0.2038
vn 0.1058 -0.9913 0.0779
vn 0.0875 -0.9949 -0.0506
vn 0.5453 -0.8247 0.1503
vn 0.8946 -0.4378 0.0892
vn 0.9301 -0.2807 0.2368
vn 0.8565 -0.3109 -0.4120
vn 0.0561 -0.9884 -0.1413
vn 0.2632 -0.2736 -0.9251
vn 0.0447 -0.9904 -0.1312
vn -0.0740 -0.4019 -0.9127
vn -0.0133 -0.9882 -0.1525
vn -0.8955 -0.1571 -0.4165
vn -0.1570 -0.9762 -0.1494
vn -0.9208 -0.3648 -0.1380
vn -0.9345 0.1843 -0.3047
vn -0.3509 -0.9355 -0.0417
vn -0.5264 -0.1941 0.8278
vn -0.1037 -0.9940 0.0362
vn -0.0155 -0.9909 0.1336
vn -0.0206 -0.9879 0.1534
vn 0.5527 -0.5639 0.6136
vn 0.0151 -0.9999 -0.0011
vn 0.0054 -1.0000 0.0081
vn 0.0172 -0.9998 -0.0042
vn -0.0234 -0.9989 0.0398
vn 0.0006 -1.0000 0.0041
vn 0.0131 -0.9993 -0.0343
vn 0.0011 -1.0000 -0.0058
vn 0.0019 -1.0000 -0.0054
vn -0.0082 -1.0000 0.0008
vn 0.0123 -0.9999 0.0013
vn 0.0034 -1.0000 0.0031
vn 0.0006 -1.0000 -0.0041
vn 0.0118 -0.9999 0.0002
vn 0.0342 -0.9994 0.0052
vn 0.0014 -1.0000 -0.0028
vn 0.0131 -0.9999 0.0104
vn -0.0047 -1.0000 -0.0044
vn 0.0021 -1.0000 -0.0015
vn 0.0095 -0.9999 -0.0055
vn -0.0060 -0.9996 -0.0258
vn -0.0627 -0.9974 0.0344
vn 0.0316 -0.9763 0.2139
vn -0.9222 -0.1941 -0.3346
vn -0.9958 -0.0908 -0.0096
vn -0.9409 -0.1182 -0.3172
vn -0.9567 -0.2000 -0.2113
vn -0.9769 -0.1122 -0.1817
vn -0.7702 0.5704 -0.2854
vn 0.3392 0.9406 0.0133
vn 0.9225 0.3844 -0.0345
vn 0.9777 0.1968 0.0727
vn 0.9960 0.0006 0.0894
vn 0.9981 -0.0612 -0.0084
vn 0.9732 -0.0805 0.2153
vn 0.9416 -0.0002 0.3368
vn 0.8809 -0.0692 0.4681
vn 0.8742 0.1403 0.4649
vn 0.8576 0.3634 0.3640
vn 0.7512 0.6024 0.2699
vn 0.9201 0.1758 0.3499
vn 0.9611 0.1771 0.2121
vn 0.9061 0.3692 0.2067
vn 0.8160 0.5613 0.1381
vn 0.6118 0.7828 0.1140
vn 0.2298 0.8593 0.4569
vn 0.1144 0.9885 0.0990
vn -0.3931 0.9178 -0.0558
vn -0.8263 0.5452 -0.1414
vn -0.9827 -0.0657 -0.1730
vn -0.9079 -0.3231 -0.2669
vn -0.8768 -0.4122 -0.2474
vn -0.9659 0.1173 -0.2309
vn -0.3232 0.9336 -0.1545
vn 0.0308 0.9981 -0.0538
vn 0.4604 0.8689 0.1815
vn -0.8133 0.3184 -0.4870
vn -0.9570 0.2602 0.1283
vn -0.0521 0.4981 -0.8656
vn -0.0621 0.9943 -0.0867
vn 0.0703 0.9892 -0.1284
vn 0.7511 0.4007 -0.5247
vn 0.2251 0.9719 0.0683
vn 0.8521 0.4491 0.2687
vn 0.9029 0.3509 0.2482
vn 0.2815 0.9568 0.0722
vn 0.0084 0.9993 0.0367
vn -0.2258 0.9725 -0.0571
vn -0.0230 0.9832 0.1813
vn 0.1209 0.4062 0.9058
vn -0.1273 0.9870 0.0985
vn -0.5992 0.3344 0.7274
vt 0.264160 0.016113
vt 0.264160 0.095215
vt 0.253662 0.016113
vt 0.113831 0.016113
vt 0.124329 0.095215
vt 0.113831 0.095215
vt 0.302002 0.130371
vt 0.303223 0.130859
vt 0.303223 0.138672
vt 0.198486 0.131836
vt 0.199707 0.131348
vt 0.198608 0.139648
vt 0.199463 0.203125
vt 0.201660 0.212402
vt 0.200317 0.211914
vt 0.199829 0.192383
vt 0.301514 0.211426
vt 0.303467 0.202148
vt 0.302979 0.211426
vt 0.303223 0.191895
vt 0.301758 0.170898
vt 0.303467 0.170410
vt 0.303955 0.182129
vt 0.303467 0.158691
vt 0.303467 0.149414
vt 0.287109 0.376465
vt 0.275635 0.376465
vt 0.287598 0.368652
vt 0.274902 0.274902
vt 0.286133 0.274902
vt 0.286865 0.282715
vt 0.208008 0.369629
vt 0.228027 0.377441
vt 0.208496 0.377441
vt 0.253418 0.377441
vt 0.252441 0.274414
vt 0.227173 0.274902
vt 0.207275 0.283203
vt 0.207642 0.274902
vt 0.051910 0.236328
vt 0.066276 0.250649
vt 0.047974 0.225586
vt 0.066277 0.250650
vt 0.059357 0.247070
vt 0.049896 0.238281
vt 0.061615 0.245605
vt 0.124329 0.016113
vt 0.253662 0.095215
vt 0.198852 0.182610
vt 0.303251 0.139928
vt 0.378874 0.017578
vt 0.369806 0.025879
vt 0.369836 0.017578
vt 0.378981 0.025879
vt 0.387505 0.017578
vt 0.387429 0.025879
vt 0.396503 0.025879
vt 0.396485 0.017578
vt 0.404785 0.017578
vt 0.404785 0.025879
vt 0.378874 0.005095
vt 0.369806 0.013184
vt 0.369836 0.004883
vt 0.378981 0.013672
vt 0.387505 0.005371
vt 0.387429 0.013672
vt 0.396503 0.013184
vt 0.396485 0.004883
vt 0.404785 0.004883
vt 0.404785 0.013184
vt 0.169449 0.258789
vt 0.160326 0.259277
vt 0.160486 0.250488
vt 0.169423 0.250488
vt 0.177959 0.258789
vt 0.177978 0.250488
vt 0.187006 0.250488
vt 0.187100 0.259277
vt 0.195190 0.259277
vt 0.195190 0.250488
vt 0.307208 0.305012
vt 0.302930 0.298976
vt 0.314504 0.304407
vt 0.318604 0.297088
vt 0.302979 0.240234
vt 0.308594 0.239258
vt 0.320766 0.317163
vt 0.321689 0.324795
vt 0.304960 0.317297
vt 0.318944 0.379625
vt 0.322613 0.341871
vt 0.321867 0.389625
vt 0.320820 0.391620
vt 0.306116 0.389816
vt 0.305239 0.374604
vt 0.304423 0.374808
vt 0.305019 0.389858
vt 0.304443 0.363046
vt 0.198487 0.131851
vt 0.198834 0.182578
vt 0.198097 0.143204
vt 0.225572 0.211605
vt 0.201661 0.212402
vt 0.199709 0.131348
vt 0.217309 0.130371
vt 0.237549 0.130859
vt 0.263277 0.211426
vt 0.260169 0.130371
vt 0.284400 0.129883
vt 0.284912 0.210938
vt 0.302002 0.130371
vt 0.301513 0.211426
vt 0.161621 0.232422
vt 0.170357 0.232422
vt 0.161621 0.240723
vt 0.170432 0.240723
vt 0.178800 0.240723
vt 0.178934 0.232422
vt 0.187952 0.240723
vt 0.187809 0.232422
vt 0.196392 0.240723
vt 0.196410 0.232422
vt 0.352215 0.168293
vt 0.344919 0.167200
vt 0.356421 0.162111
vt 0.340820 0.160006
vt 0.356201 0.103516
vt 0.350586 0.102539
vt 0.303222 0.130874
vt 0.303711 0.130358
vt 0.303980 0.182090
vt 0.073004 0.219274
vt 0.057855 0.202863
vt 0.073004 0.202863
vt 0.057855 0.219274
vt 0.073004 0.219274
vt 0.057855 0.202863
vt 0.073004 0.202863
vt 0.057855 0.219274
vt 0.073004 0.202863
vt 0.073004 0.219274
vt 0.057855 0.202863
vt 0.057855 0.219274
vt 0.073004 0.219274
vt 0.057855 0.202863
vt 0.253662 0.095215
vt 0.124329 0.016113
vt 0.124329 0.095215
vt 0.287598 0.368607
vt 0.208007 0.369594
vt 0.286866 0.282730
vt 0.207275 0.283211
vt 0.595843 0.357820
vt 0.593953 0.352150
vt 0.603908 0.343496
vt 0.599537 0.408931
vt 0.594011 0.416026
vt 0.597175 0.372930
vt 0.603979 0.424105
vt 0.593858 0.417607
vt 0.612297 0.408325
vt 0.613651 0.409141
vt 0.604667 0.424735
vt 0.616222 0.395227
vt 0.171143 0.228516
vt 0.170567 0.225843
vt 0.230711 0.220178
vt 0.169875 0.223068
vt 0.231310 0.216737
vt 0.243861 0.220827
vt 0.242222 0.216869
vt 0.168701 0.218262
vt 0.255404 0.217750
vt 0.257357 0.222353
vt 0.268195 0.219855
vt 0.268552 0.223549
vt 0.330822 0.223657
vt 0.330811 0.225586
vt 0.331602 0.217725
vt 0.268143 0.213749
vt 0.260716 0.211633
vt 0.255190 0.210216
vt 0.335952 0.171981
vt 0.270052 0.166607
vt 0.277216 0.162418
vt 0.331454 0.118935
vt 0.267549 0.122500
vt 0.267975 0.116377
vt 0.331055 0.114356
vt 0.331055 0.111576
vt 0.268191 0.112328
vt 0.257228 0.113601
vt 0.255984 0.118568
vt 0.244436 0.115246
vt 0.260931 0.124463
vt 0.255869 0.126292
vt 0.262994 0.147873
vt 0.249193 0.169096
vt 0.250475 0.125914
vt 0.249672 0.209960
vt 0.242494 0.210459
vt 0.231635 0.210787
vt 0.169910 0.166765
vt 0.226592 0.172050
vt 0.242618 0.173389
vt 0.235637 0.173093
vt 0.243233 0.125696
vt 0.231089 0.125532
vt 0.168701 0.119629
vt 0.231247 0.119627
vt 0.169793 0.114446
vt 0.242748 0.119484
vt 0.230451 0.116268
vt 0.170474 0.111559
vt 0.171021 0.108887
vt 0.125610 0.111816
vt 0.117318 0.171212
vt 0.122937 0.110840
vt 0.120186 0.110303
vt 0.113709 0.171857
vt 0.117775 0.184331
vt 0.113877 0.182736
vt 0.115173 0.109375
vt 0.107883 0.171937
vt 0.063553 0.110238
vt 0.107492 0.183199
vt 0.114776 0.195858
vt 0.107149 0.190034
vt 0.107364 0.195814
vt 0.065984 0.189864
vt 0.070507 0.183141
vt 0.069979 0.176195
vt 0.068952 0.167113
vt 0.022461 0.171663
vt 0.016586 0.109375
vt 0.044082 0.198692
vt 0.022730 0.183747
vt 0.016717 0.171673
vt 0.011472 0.110303
vt 0.016389 0.183226
vt 0.013121 0.171234
vt 0.008730 0.110840
vt 0.006050 0.111328
vt 0.012407 0.185006
vt 0.015613 0.196559
vt 0.010896 0.198275
vt 0.023075 0.191018
vt 0.022227 0.198571
vt 0.019647 0.208430
vt 0.013498 0.208381
vt 0.009343 0.208694
vt 0.016757 0.272278
vt 0.011643 0.271484
vt 0.008712 0.271484
vt 0.064941 0.276351
vt 0.063507 0.210823
vt 0.070834 0.218000
vt 0.108582 0.201206
vt 0.114544 0.271818
vt 0.110718 0.208388
vt 0.116933 0.208661
vt 0.120432 0.271484
vt 0.119405 0.197948
vt 0.120640 0.209023
vt 0.122925 0.270996
vt 0.200660 0.229004
vt 0.294215 0.229494
vt 0.201384 0.247281
vt 0.208964 0.250940
vt 0.201581 0.260639
vt 0.293823 0.247599
vt 0.284211 0.253397
vt 0.201002 0.376840
vt 0.201412 0.364825
vt 0.210604 0.371788
vt 0.293600 0.378258
vt 0.200535 0.395018
vt 0.294213 0.395508
vt 0.281065 0.367489
vt 0.293521 0.365065
vt 0.293650 0.260605
vt 0.974492 0.272133
vt 0.992876 0.278516
vt 0.977157 0.300251
vt 0.967997 0.300269
vt 0.967279 0.333164
vt 0.954437 0.336314
vt 0.953237 0.344550
vt 0.965226 0.348910
vt 0.965616 0.340097
vt 0.973721 0.343011
vt 0.974961 0.335783
vt 0.973586 0.354103
vt 0.958710 0.366084
vt 0.970758 0.371540
vt 0.968810 0.399446
vt 0.958314 0.407080
vt 0.966397 0.419396
vt 0.968102 0.435177
vt 0.974856 0.494783
vt 0.960146 0.435932
vt 0.963750 0.470232
vt 0.967269 0.428461
vt 0.959882 0.428265
vt 0.957935 0.497936
vt 0.948282 0.428438
vt 0.948945 0.419048
vt 0.948167 0.436005
vt 0.954464 0.469184
vt 0.955930 0.500512
vt 0.967910 0.560092
vt 0.974529 0.572253
vt 0.977381 0.584102
vt 0.995241 0.579060
vt 0.978161 0.589720
vt 0.997366 0.585036
vt 0.992730 0.569106
vt 0.998016 0.582595
vt 0.988448 0.544837
vt 0.958515 0.514608
vt 0.978661 0.507593
vt 0.976399 0.496600
vt 0.961461 0.505824
vt 0.435999 0.347628
vt 0.440186 0.348633
vt 0.432074 0.420255
vt 0.409684 0.438756
vt 0.426653 0.344850
vt 0.410190 0.413397
vt 0.406066 0.443867
vt 0.414970 0.505071
vt 0.408247 0.495428
vt 0.418754 0.547390
vt 0.413791 0.545504
vt 0.421709 0.557692
vt 0.433998 0.558838
vt 0.429966 0.564061
vt 0.437021 0.554087
vt 0.429765 0.463360
vt 0.432763 0.446088
vt 0.434544 0.484481
vt 0.440635 0.533516
vt 0.440990 0.555140
vt 0.440109 0.560331
vt 0.436251 0.563392
vt 0.334204 0.319261
vt 0.332764 0.326660
vt 0.328985 0.267773
vt 0.334744 0.347696
vt 0.355546 0.338899
vt 0.338381 0.265496
vt 0.359158 0.333036
vt 0.356887 0.317518
vt 0.359292 0.361449
vt 0.338539 0.354097
vt 0.332674 0.369368
vt 0.325766 0.422450
vt 0.330411 0.407835
vt 0.352102 0.383965
vt 0.327892 0.425963
vt 0.359924 0.377822
vt 0.331003 0.423203
vt 0.330078 0.429199
vt 0.333388 0.426923
vt 0.348938 0.417408
vt 0.341186 0.427001
vt 0.350590 0.421870
vt 0.354722 0.414703
vt 0.195022 0.401367
vt 0.173439 0.401367
vt 0.195421 0.400283
vt 0.150145 0.399927
vt 0.150028 0.401367
vt 0.105195 0.399939
vt 0.105589 0.401367
vt 0.107648 0.384854
vt 0.193182 0.384926
vt 0.163388 0.360177
vt 0.175492 0.328013
vt 0.195025 0.381368
vt 0.195601 0.326121
vt 0.195534 0.298591
vt 0.195923 0.308105
vt 0.179154 0.297530
vt 0.175533 0.283056
vt 0.195664 0.279667
vt 0.195451 0.278320
vt 0.178079 0.278809
vt 0.162431 0.278320
vt 0.137970 0.278239
vt 0.125215 0.283127
vt 0.122746 0.278809
vt 0.105389 0.278320
vt 0.105286 0.279667
vt 0.105363 0.298035
vt 0.104980 0.307617
vt 0.105219 0.325941
vt 0.119550 0.322808
vt 0.123120 0.299112
vt 0.105589 0.381363
vt 0.120667 0.355391
vt 0.142274 0.381415
vt 0.150634 0.208496
vt 0.156128 0.209473
vt 0.140302 0.266001
vt 0.155575 0.268452
vt 0.151703 0.274274
vt 0.144648 0.273599
vt 0.132691 0.177246
vt 0.143106 0.234412
vt 0.127197 0.178223
vt 0.127755 0.237227
vt 0.138702 0.242303
vt 0.131616 0.243020
vt 0.950836 0.367709
vt 0.369787 0.039250
vt 0.369779 0.030624
vt 0.378091 0.039225
vt 0.378107 0.030571
vt 0.418615 0.018856
vt 0.418637 0.027481
vt 0.410239 0.018880
vt 0.410223 0.027534
vt 0.396591 0.030094
vt 0.405310 0.030115
vt 0.405273 0.038736
vt 0.396538 0.038751
vt 0.418637 0.005234
vt 0.418615 0.013859
vt 0.410239 0.013835
vt 0.410224 0.005181
vt 0.524189 0.370830
vt 0.523926 0.372070
vt 0.523315 0.368575
vt 0.519798 0.373316
vt 0.521029 0.368115
vt 0.511828 0.417093
vt 0.519452 0.458187
vt 0.534869 0.458611
vt 0.534689 0.373447
vt 0.523450 0.461436
vt 0.521470 0.462013
vt 0.524064 0.458607
vt 0.529401 0.459901
vt 0.531331 0.461870
vt 0.537607 0.412304
vt 0.529805 0.371072
vt 0.531436 0.368478
vt 0.529513 0.369845
vt 0.150044 0.202187
vt 0.148900 0.204445
vt 0.149780 0.200684
vt 0.145343 0.199836
vt 0.146738 0.204764
vt 0.137474 0.155793
vt 0.145197 0.114730
vt 0.160463 0.114279
vt 0.160349 0.199873
vt 0.147195 0.111041
vt 0.149304 0.111636
vt 0.149933 0.114286
vt 0.155215 0.113098
vt 0.157143 0.111155
vt 0.163441 0.156860
vt 0.157117 0.204396
vt 0.155646 0.201701
vt 0.155246 0.203181
vt 0.348601 0.259789
vt 0.346924 0.247559
vt 0.345459 0.198730
vt 0.345955 0.186367
vt 0.356607 0.259065
vt 0.354611 0.186253
vt 0.398379 0.416708
vt 0.400117 0.343702
vt 0.399414 0.404785
vt 0.400879 0.355957
vt 0.391763 0.343513
vt 0.389692 0.416522
vt 0.639557 0.397112
vt 0.710459 0.395912
vt 0.672167 0.406840
vt 0.713973 0.405304
vt 0.640244 0.407013
vt 0.725126 0.401274
vt 0.721191 0.394537
vt 0.705761 0.408379
vt 0.721624 0.404731
vt 0.639869 0.408150
vt 0.727733 0.399890
vt 0.728539 0.394340
vt 0.730113 0.361214
vt 0.721191 0.354980
vt 0.727158 0.326410
vt 0.727482 0.324039
vt 0.720703 0.325199
vt 0.721636 0.321341
vt 0.709713 0.324540
vt 0.718219 0.318379
vt 0.686864 0.317949
vt 0.692051 0.316744
vt 0.638642 0.319265
vt 0.631930 0.320942
vt 0.638575 0.325547
vt 0.623544 0.326994
vt 0.623204 0.324805
vt 0.628906 0.326663
vt 0.628906 0.356445
vt 0.620117 0.363082
vt 0.621930 0.396125
vt 0.629395 0.395997
vt 0.625930 0.402216
vt 0.624887 0.403479
vt 0.011513 0.402277
vt 0.008720 0.400780
vt 0.020554 0.400391
vt 0.006875 0.397343
vt 0.006610 0.394372
vt 0.007365 0.390700
vt 0.009393 0.388124
vt 0.034404 0.398889
vt 0.080750 0.384102
vt 0.018287 0.384125
vt 0.034737 0.381273
vt 0.049561 0.398438
vt 0.049530 0.380371
vt 0.064352 0.381273
vt 0.064701 0.398889
vt 0.089741 0.387905
vt 0.092470 0.394282
vt 0.078552 0.400391
vt 0.088114 0.402140
vt 0.092218 0.397872
vt 0.090968 0.400396
vt 0.091722 0.390690
vt 0.076661 0.012026
vt 0.073659 0.038955
vt 0.006655 0.015942
vt 0.006113 0.046176
vt 0.074773 0.069261
vt 0.006201 0.077507
vt 0.077284 0.100145
vt 0.006562 0.094649
vt 0.038513 0.098145
vt 0.165439 0.104296
vt 0.160269 0.098514
vt 0.169932 0.103701
vt 0.171478 0.075719
vt 0.193164 0.104636
vt 0.182907 0.103971
vt 0.193121 0.074842
vt 0.206482 0.104770
vt 0.228925 0.101881
vt 0.245348 0.105201
vt 0.287103 0.101348
vt 0.286179 0.087173
vt 0.309066 0.081527
vt 0.310438 0.100368
vt 0.364991 0.087816
vt 0.364991 0.097211
vt 0.364990 0.065749
vt 0.310002 0.046432
vt 0.364991 0.028599
vt 0.309192 0.014190
vt 0.364991 0.014499
vt 0.288639 0.021821
vt 0.290128 0.009809
vt 0.272441 0.008185
vt 0.237342 0.025672
vt 0.209188 0.006648
vt 0.246462 0.006119
vt 0.209428 0.037478
vt 0.288249 0.040417
vt 0.287086 0.066092
vt 0.242258 0.065721
vt 0.210145 0.079721
vt 0.202506 0.075472
vt 0.199182 0.008028
vt 0.186208 0.007326
vt 0.192504 0.009400
vt 0.188751 0.034707
vt 0.175884 0.008095
vt 0.177480 0.006348
vt 0.176391 0.034645
vt 0.170032 0.007412
vt 0.171741 0.023565
vt 0.165956 0.017524
vt 0.164463 0.007469
vt 0.115438 0.009411
vt 0.038605 0.013184
vt 0.092359 0.009828
vt 0.095095 0.055696
vt 0.106334 0.101354
vt 0.116478 0.055327
vt 0.167556 0.068179
vt 0.175671 0.103910
vt 0.176353 0.076136
vt 0.182901 0.074647
vt 0.198805 0.037414
vt 0.045854 0.280799
vt 0.014552 0.285845
vt 0.016078 0.283252
vt 0.088774 0.284184
vt 0.089783 0.282784
vt 0.008662 0.288628
vt 0.008999 0.291558
vt 0.029073 0.309064
vt 0.024186 0.338334
vt 0.006096 0.327084
vt 0.010434 0.364843
vt 0.006939 0.360840
vt 0.010490 0.367891
vt 0.027583 0.361246
vt 0.022038 0.371068
vt 0.027284 0.372807
vt 0.040369 0.375276
vt 0.082992 0.372367
vt 0.068137 0.373010
vt 0.061873 0.361649
vt 0.054353 0.334456
vt 0.054553 0.294443
vt 0.085923 0.340006
vt 0.096734 0.366465
vt 0.098217 0.358881
vt 0.090433 0.371974
vt 0.082186 0.307905
vt 0.100037 0.359863
vt 0.100647 0.326813
vt 0.097415 0.287929
vt 0.096778 0.289257
s 1
f 3/1/1 1/2/2 2/3/1
f 6/4/3 4/5/4 5/6/4
f 9/7/5 7/8/5 8/9/5
f 12/10/6 10/11/6 11/12/6
f 15/13/7 13/14/7 14/15/7
f 18/16/8 16/14/8 17/13/8
f 29/17/7 27/18/7 28/19/7
f 32/17/9 30/20/9 31/18/9
f 35/21/10 33/22/10 34/23/10
f 38/21/11 36/23/11 37/20/11
f 41/21/12 39/20/12 40/17/12
f 44/21/13 42/24/13 43/22/13
f 47/21/14 45/25/14 46/24/14
f 50/26/15 48/27/15 49/28/15
f 53/29/16 51/30/16 52/31/16
f 56/32/17 54/33/17 55/34/17
f 59/28/18 57/27/18 58/35/18
f 62/29/19 60/31/19 61/36/19
f 65/37/20 63/38/20 64/39/20
f 70/40/21 68/41/22 69/42/21
f 73/40/23 71/42/24 72/43/25
f 76/40/26 74/44/26 75/45/26
f 77/46/26 74/44/26 76/40/26
f 80/45/27 78/44/27 79/40/27
f 81/46/27 79/40/27 78/44/27
f 6/4/3 84/47/4 4/5/4
f 1/2/2 85/48/1 2/3/1
f 88/14/28 86/49/29 87/11/30
f 90/21/31 89/7/32 91/50/33
f 94/33/34 92/32/34 93/35/34
f 93/35/34 92/32/34 95/28/34
f 98/37/35 96/36/35 97/38/35
f 96/36/35 99/31/35 97/38/35
f 102/51/36 101/52/37 100/53/38
f 103/54/39 101/52/37 102/51/36
f 103/54/39 102/51/36 368/55/40
f 103/54/39 368/55/40 104/56/41
f 104/56/41 368/55/40 105/57/42
f 369/58/43 105/57/42 368/55/40
f 100/59/38 105/57/42 369/58/43
f 100/59/38 101/60/37 105/57/42
f 108/61/44 107/62/45 106/63/46
f 109/64/47 107/62/45 108/61/44
f 109/64/47 108/61/44 370/65/48
f 109/64/47 370/65/48 110/66/49
f 110/66/49 370/65/48 111/67/50
f 371/68/51 111/67/50 370/65/48
f 106/69/46 111/67/50 371/68/51
f 106/69/46 107/70/45 111/67/50
f 114/71/52 113/72/53 112/73/54
f 114/71/52 112/73/54 364/74/55
f 114/71/52 364/74/55 115/75/56
f 115/75/56 364/74/55 365/76/57
f 365/76/57 116/77/58 115/75/56
f 117/78/59 115/75/56 116/77/58
f 116/77/58 113/79/53 117/78/59
f 112/80/54 113/79/53 116/77/58
f 187/81/60 189/82/61 184/83/62
f 183/84/63 184/83/62 189/82/61
f 189/82/61 383/85/64 183/84/63
f 118/86/65 183/84/63 383/85/64
f 353/87/66 119/88/67 352/89/68
f 121/90/69 123/91/70 357/92/71
f 357/92/71 360/93/72 120/94/73
f 120/94/73 121/90/69 357/92/71
f 122/95/74 121/90/69 120/94/73
f 147/96/75 122/95/74 120/94/73
f 341/97/76 147/96/75 120/94/73
f 147/96/75 148/98/77 122/95/74
f 148/98/77 352/89/68 122/95/74
f 123/91/70 121/90/69 122/95/74
f 352/89/68 123/91/70 122/95/74
f 352/89/68 119/88/67 123/91/70
f 346/99/78 179/100/79 180/101/80
f 129/102/81 126/103/82 125/104/83
f 127/105/84 129/102/81 125/104/83
f 128/106/85 129/102/81 127/105/84
f 131/107/86 129/102/81 128/106/85
f 130/108/87 131/107/86 128/106/85
f 132/109/88 131/107/86 130/108/87
f 133/110/89 131/107/86 132/109/88
f 134/111/90 133/110/89 132/109/88
f 133/110/89 134/111/90 135/112/91
f 367/113/92 136/114/93 137/115/94
f 138/116/95 137/115/94 136/114/93
f 136/114/93 140/117/53 138/116/95
f 139/118/96 140/117/53 136/114/93
f 141/119/97 140/117/53 139/118/96
f 141/119/97 139/118/96 366/120/98
f 141/119/97 366/120/98 137/121/94
f 137/121/94 366/120/98 367/122/92
f 143/123/99 142/124/100 145/125/101
f 142/124/100 144/126/102 145/125/101
f 144/126/102 146/127/103 145/125/101
f 386/128/104 146/127/103 144/126/102
f 149/129/105 352/130/68 148/131/77
f 152/132/106 151/133/107 150/134/108
f 152/132/106 153/135/109 151/133/107
f 156/136/106 155/137/107 154/138/108
f 156/136/106 157/139/109 155/137/107
f 158/140/108 160/141/106 159/142/110
f 161/143/109 159/142/110 160/141/106
f 162/140/108 164/144/106 163/145/110
f 165/135/109 163/145/110 164/144/106
f 167/3/111 166/146/112 169/147/113
f 168/148/114 169/147/113 166/146/112
f 171/149/115 170/150/116 173/151/117
f 170/150/116 172/152/118 173/151/117
f 175/153/119 174/154/120 180/155/80
f 182/156/121 176/157/122 181/158/123
f 176/157/122 339/159/124 343/160/125
f 182/156/121 339/159/124 176/157/122
f 182/156/121 177/161/126 339/159/124
f 178/162/127 339/159/124 177/161/126
f 124/163/128 339/159/124 178/162/127
f 178/162/127 177/161/126 179/164/79
f 179/164/79 177/161/126 180/155/80
f 175/153/119 180/155/80 181/158/123
f 181/158/123 180/155/80 177/161/126
f 181/158/123 177/161/126 182/156/121
f 118/165/65 372/166/129 183/167/63
f 372/166/129 375/168/130 183/167/63
f 183/167/63 185/169/131 184/170/62
f 183/167/63 375/168/130 185/169/131
f 186/171/132 184/170/62 185/169/131
f 375/168/130 374/172/133 185/169/131
f 188/173/134 184/170/62 186/171/132
f 184/170/62 188/173/134 187/174/60
f 188/173/134 190/175/135 187/174/60
f 190/175/135 189/176/61 187/174/60
f 385/177/136 383/178/64 189/176/61
f 189/176/61 190/175/135 385/177/136
f 385/177/136 190/175/135 377/179/137
f 190/175/135 191/180/138 377/179/137
f 190/175/135 188/173/134 191/180/138
f 192/181/139 191/180/138 188/173/134
f 188/173/134 193/182/140 192/181/139
f 196/183/141 377/179/137 191/180/138
f 192/181/139 194/184/142 191/180/138
f 195/185/143 196/183/141 191/180/138
f 194/184/142 195/185/143 191/180/138
f 379/186/144 196/183/141 195/185/143
f 197/187/145 379/186/144 195/185/143
f 195/185/143 194/184/142 197/187/145
f 198/188/146 379/186/144 197/187/145
f 379/186/144 198/188/146 384/189/147
f 381/190/148 384/189/147 198/188/146
f 198/188/146 199/191/149 381/190/148
f 198/188/146 200/192/150 199/191/149
f 200/192/150 198/188/146 201/193/151
f 200/192/150 201/193/151 217/194/152
f 197/187/145 201/193/151 198/188/146
f 201/193/151 197/187/145 202/195/153
f 201/193/151 202/195/153 203/196/154
f 197/187/145 194/184/142 202/195/153
f 204/197/155 202/195/153 194/184/142
f 202/195/153 204/197/155 203/196/154
f 203/196/154 211/198/156 218/199/157
f 204/197/155 194/184/142 192/181/139
f 193/182/140 203/196/154 204/197/155
f 193/182/140 204/197/155 192/181/139
f 188/173/134 205/200/158 193/182/140
f 205/200/158 188/173/134 208/201/159
f 211/198/156 193/182/140 205/200/158
f 186/171/132 208/201/159 188/173/134
f 208/201/159 186/171/132 185/169/131
f 206/202/160 185/169/131 374/172/133
f 185/169/131 206/202/160 208/201/159
f 374/172/133 207/203/161 206/202/160
f 209/204/162 206/202/160 207/203/161
f 205/200/158 208/201/159 211/198/156
f 208/201/159 212/205/163 211/198/156
f 212/205/163 208/201/159 210/206/164
f 206/202/160 210/206/164 208/201/159
f 209/204/162 210/206/164 206/202/160
f 211/198/156 203/196/154 193/182/140
f 211/198/156 212/205/163 213/207/165
f 211/198/156 213/207/165 218/199/157
f 212/205/163 210/206/164 213/207/165
f 213/207/165 210/206/164 214/208/166
f 209/204/162 214/208/166 210/206/164
f 214/208/166 209/204/162 207/203/161
f 376/209/167 214/208/166 207/203/161
f 215/210/168 214/208/166 376/209/167
f 378/211/169 215/210/168 376/209/167
f 215/210/168 213/207/165 214/208/166
f 213/207/165 215/210/168 216/212/170
f 216/212/170 201/193/151 213/207/165
f 201/193/151 216/212/170 217/194/152
f 218/199/157 213/207/165 201/193/151
f 203/196/154 218/199/157 201/193/151
f 216/212/170 215/210/168 217/194/152
f 219/213/171 217/194/152 215/210/168
f 219/213/171 215/210/168 378/211/169
f 380/214/172 219/213/171 378/211/169
f 220/215/173 219/213/171 380/214/172
f 386/216/104 144/217/102 221/218/174
f 223/219/175 221/218/174 144/217/102
f 144/217/102 222/220/176 223/219/175
f 144/217/102 142/221/100 222/220/176
f 224/222/177 222/220/176 142/221/100
f 225/223/178 223/219/175 222/220/176
f 230/224/179 225/223/178 222/220/176
f 225/223/178 230/224/179 235/225/180
f 227/226/181 222/220/176 224/222/177
f 230/224/179 222/220/176 227/226/181
f 226/227/182 224/222/177 142/221/100
f 224/222/177 226/227/182 227/226/181
f 228/228/183 227/226/181 226/227/182
f 226/227/182 229/229/184 228/228/183
f 228/228/183 232/230/185 227/226/181
f 231/231/186 227/226/181 232/230/185
f 230/224/179 227/226/181 233/232/187
f 233/232/187 227/226/181 231/231/186
f 233/232/187 234/233/188 230/224/179
f 234/233/188 235/225/180 230/224/179
f 238/234/189 235/225/180 234/233/188
f 236/235/190 235/225/180 238/234/189
f 229/229/184 237/236/191 232/230/185
f 234/233/188 233/232/187 238/234/189
f 239/237/192 238/234/189 233/232/187
f 233/232/187 231/231/186 239/237/192
f 240/238/193 236/235/190 238/234/189
f 236/235/190 240/238/193 242/239/194
f 240/238/193 238/234/189 239/237/192
f 239/237/192 241/240/195 240/238/193
f 240/238/193 243/241/196 242/239/194
f 244/242/197 242/239/194 243/241/196
f 264/243/198 244/242/197 243/241/196
f 243/241/196 240/238/193 245/244/199
f 241/240/195 245/244/199 240/238/193
f 246/245/200 245/244/199 241/240/195
f 247/246/201 245/244/199 246/245/200
f 241/240/195 239/237/192 246/245/200
f 249/247/202 246/245/200 239/237/192
f 250/248/203 246/245/200 249/247/202
f 231/231/186 232/230/185 239/237/192
f 239/237/192 232/230/185 249/247/202
f 232/230/185 237/236/191 249/247/202
f 249/247/202 237/236/191 250/248/203
f 246/245/200 250/248/203 251/249/204
f 246/245/200 251/249/204 252/250/205
f 247/246/201 246/245/200 252/250/205
f 252/250/205 248/251/206 247/246/201
f 254/252/207 253/253/208 252/250/205
f 252/250/205 251/249/204 254/252/207
f 255/254/209 252/250/205 253/253/208
f 258/255/210 254/252/207 251/249/204
f 251/249/204 250/248/203 256/256/211
f 250/248/203 237/236/191 256/256/211
f 251/249/204 257/257/212 258/255/210
f 257/257/212 251/249/204 256/256/211
f 256/256/211 237/236/191 259/258/213
f 229/229/184 259/258/213 237/236/191
f 258/255/210 257/257/212 260/259/214
f 261/260/215 260/259/214 257/257/212
f 257/257/212 256/256/211 261/260/215
f 232/230/185 228/228/183 229/229/184
f 259/258/213 261/260/215 256/256/211
f 229/229/184 226/227/182 259/258/213
f 259/258/213 226/227/182 261/260/215
f 262/261/216 261/260/215 226/227/182
f 262/261/216 260/259/214 261/260/215
f 260/259/214 262/261/216 263/262/217
f 226/227/182 142/221/100 143/263/99
f 226/227/182 143/263/99 262/261/216
f 145/264/101 262/261/216 143/263/99
f 145/264/101 263/262/217 262/261/216
f 263/262/217 145/264/101 146/265/103
f 252/250/205 255/254/209 248/251/206
f 265/266/218 266/267/219 389/268/220
f 389/268/220 267/269/221 270/270/222
f 389/268/220 268/271/223 267/269/221
f 389/268/220 266/267/219 268/271/223
f 269/272/224 267/269/221 268/271/223
f 267/269/221 269/272/224 270/270/222
f 273/273/225 271/274/226 272/275/227
f 273/273/225 276/276/228 274/277/229
f 275/278/230 274/277/229 276/276/228
f 277/279/231 391/280/232 276/276/228
f 273/273/225 272/275/227 276/276/228
f 277/279/231 276/276/228 272/275/227
f 272/275/227 271/274/226 277/279/231
f 271/274/226 391/280/232 277/279/231
f 270/270/222 391/280/232 271/274/226
f 270/270/222 390/281/233 391/280/232
f 269/272/224 390/281/233 270/270/222
f 390/281/233 269/272/224 268/271/223
f 304/282/234 278/283/235 279/284/236
f 279/284/236 280/285/237 304/282/234
f 281/286/238 280/285/237 279/284/236
f 280/285/237 281/286/238 282/287/239
f 283/288/240 282/287/239 288/289/241
f 284/290/242 288/289/241 282/287/239
f 284/290/242 282/287/239 281/286/238
f 284/290/242 281/286/238 286/291/243
f 284/290/242 286/291/243 288/289/241
f 279/284/236 278/283/235 281/286/238
f 285/292/244 286/291/243 281/286/238
f 285/292/244 281/286/238 278/283/235
f 495/293/245 288/289/241 286/291/243
f 362/294/246 283/288/240 288/289/241
f 495/293/245 287/295/247 288/289/241
f 501/296/248 295/297/249 287/295/247
f 501/296/248 289/298/250 295/297/249
f 290/299/251 291/300/252 292/301/253
f 293/302/254 292/301/253 291/300/252
f 290/299/251 292/301/253 502/303/255
f 292/301/253 294/304/256 502/303/255
f 312/305/257 293/302/254 291/300/252
f 294/304/256 289/298/250 502/303/255
f 289/298/250 294/304/256 295/297/249
f 294/304/256 292/301/253 296/306/258
f 294/304/256 297/307/259 295/297/249
f 297/307/259 294/304/256 296/306/258
f 409/308/260 296/306/258 292/301/253
f 298/309/261 409/308/260 292/301/253
f 292/301/253 293/302/254 298/309/261
f 293/302/254 312/305/257 298/309/261
f 312/305/257 299/310/262 298/309/261
f 301/311/263 303/312/264 302/313/265
f 302/313/265 305/314/266 304/315/234
f 302/313/265 303/312/264 305/314/266
f 305/314/266 278/316/235 304/315/234
f 306/317/267 305/314/266 303/312/264
f 305/314/266 307/318/268 278/316/235
f 309/319/269 305/314/266 306/317/267
f 300/320/270 303/312/264 301/311/263
f 308/321/271 306/317/267 303/312/264
f 309/319/269 306/317/267 308/321/271
f 310/322/272 308/321/271 311/323/273
f 310/322/272 311/323/273 291/300/252
f 311/323/273 312/305/257 291/300/252
f 311/323/273 299/310/262 312/305/257
f 300/320/270 299/310/262 311/323/273
f 308/321/271 300/320/270 311/323/273
f 308/321/271 303/312/264 300/320/270
f 313/324/274 437/325/275 314/326/276
f 314/326/276 315/327/277 313/324/274
f 315/327/277 316/328/278 313/324/274
f 315/327/277 317/329/279 316/328/278
f 315/327/277 318/330/280 317/329/279
f 320/331/281 318/330/280 315/327/277
f 318/330/280 320/331/281 319/332/282
f 321/333/283 445/334/284 319/332/282
f 319/332/282 320/331/281 321/333/283
f 445/334/284 321/333/283 444/335/285
f 322/336/286 443/337/287 444/335/285
f 324/338/288 321/333/283 320/331/281
f 323/339/289 315/327/277 314/326/276
f 323/339/289 320/331/281 315/327/277
f 438/340/290 323/339/289 314/326/276
f 323/339/289 438/340/290 439/341/291
f 439/341/291 479/342/292 323/339/289
f 320/331/281 323/339/289 324/338/288
f 440/343/293 323/339/289 479/342/292
f 440/343/293 324/338/288 323/339/289
f 441/344/294 324/338/288 440/343/293
f 324/338/288 441/344/294 322/336/286
f 442/345/295 322/336/286 441/344/294
f 322/336/286 442/345/295 443/337/287
f 322/336/286 321/333/283 324/338/288
f 321/333/283 322/336/286 444/335/285
f 328/346/296 473/347/297 326/348/298
f 473/347/297 328/346/296 474/349/299
f 330/350/300 326/348/298 327/351/301
f 454/352/302 330/350/300 327/351/301
f 453/353/303 454/352/302 327/351/301
f 330/350/300 454/352/302 455/354/304
f 328/346/296 326/348/298 330/350/300
f 329/355/305 474/349/299 328/346/296
f 329/355/305 472/356/306 474/349/299
f 472/356/306 329/355/305 471/357/307
f 331/358/308 471/357/307 329/355/305
f 329/355/305 328/346/296 337/359/309
f 330/350/300 337/359/309 328/346/296
f 331/358/308 333/360/310 471/357/307
f 455/354/304 457/361/311 337/359/309
f 455/354/304 337/359/309 330/350/300
f 331/358/308 329/355/305 337/359/309
f 331/358/308 332/362/312 333/360/310
f 468/363/313 333/360/310 334/364/314
f 332/362/312 334/364/314 333/360/310
f 335/365/315 467/366/316 334/364/314
f 335/365/315 464/367/317 467/366/316
f 334/364/314 332/362/312 335/365/315
f 464/367/317 335/365/315 336/368/318
f 332/362/312 331/358/308 335/365/315
f 337/359/309 335/365/315 331/358/308
f 336/368/318 335/365/315 337/359/309
f 336/368/318 337/359/309 457/361/311
f 124/369/128 338/370/319 339/371/124
f 338/370/319 342/372/320 339/371/124
f 340/373/321 342/372/320 338/370/319
f 342/372/320 340/373/321 120/374/73
f 341/375/76 120/374/73 340/373/321
f 342/372/320 120/374/73 360/376/72
f 342/372/320 360/376/72 343/377/125
f 339/371/124 342/372/320 343/377/125
f 358/378/322 344/379/323 176/380/122
f 181/381/123 176/380/122 344/379/323
f 344/379/323 174/382/120 181/381/123
f 175/383/119 181/381/123 174/382/120
f 345/384/324 174/382/120 344/379/323
f 345/384/324 361/385/325 174/382/120
f 180/386/80 174/382/120 361/385/325
f 180/386/80 361/385/325 346/387/78
f 361/385/325 347/388/326 346/387/78
f 361/385/325 348/389/327 347/388/326
f 361/385/325 349/390/328 348/389/327
f 349/390/328 351/391/329 350/392/330
f 350/392/330 351/391/329 149/393/105
f 352/394/68 149/393/105 351/391/329
f 352/394/68 351/391/329 353/395/66
f 119/396/67 353/395/66 123/397/70
f 355/398/331 123/397/70 353/395/66
f 354/399/332 355/398/331 353/395/66
f 123/397/70 355/398/331 357/400/71
f 356/401/333 357/400/71 355/398/331
f 357/400/71 356/401/333 358/378/322
f 357/400/71 358/378/322 359/402/334
f 359/402/334 360/376/72 357/400/71
f 343/377/125 360/376/72 359/402/334
f 176/380/122 343/377/125 359/402/334
f 176/380/122 359/402/334 358/378/322
f 355/398/331 358/378/322 356/401/333
f 358/378/322 355/398/331 344/379/323
f 354/399/332 344/379/323 355/398/331
f 354/399/332 345/384/324 344/379/323
f 354/399/332 353/395/66 345/384/324
f 351/391/329 345/384/324 353/395/66
f 345/384/324 351/391/329 349/390/328
f 345/384/324 349/390/328 361/385/325
f 220/403/173 381/404/148 219/405/171
f 381/404/148 199/406/149 219/405/171
f 199/406/149 200/407/150 219/405/171
f 217/408/152 219/405/171 200/407/150
f 264/409/198 243/410/196 255/411/209
f 248/412/206 255/411/209 243/410/196
f 243/410/196 245/413/199 248/412/206
f 247/414/201 248/412/206 245/413/199
f 295/297/249 288/289/241 287/295/247
f 288/289/241 295/297/249 362/294/246
f 363/415/335 283/288/240 362/294/246
f 295/297/249 363/415/335 362/294/246
f 363/415/335 295/297/249 297/307/259
f 364/416/55 112/417/54 365/418/57
f 365/418/57 112/417/54 116/419/58
f 366/420/98 139/421/96 367/422/92
f 367/422/92 139/421/96 136/423/93
f 102/424/36 100/425/38 369/426/43
f 102/424/36 369/426/43 368/427/40
f 108/428/44 106/429/46 371/430/51
f 108/428/44 371/430/51 370/431/48
f 118/432/65 373/433/336 372/434/129
f 372/434/129 373/433/336 374/435/133
f 375/436/130 372/434/129 374/435/133
f 207/437/161 374/435/133 376/438/167
f 374/435/133 379/439/144 376/438/167
f 379/439/144 374/435/133 377/440/137
f 376/438/167 380/441/172 378/442/169
f 376/438/167 220/443/173 380/441/172
f 376/438/167 379/439/144 220/443/173
f 381/444/148 220/443/173 379/439/144
f 379/439/144 384/445/147 381/444/148
f 377/440/137 196/446/141 379/439/144
f 377/440/137 382/447/337 385/448/136
f 383/449/64 385/448/136 382/447/337
f 386/450/104 221/451/174 387/452/338
f 221/451/174 225/453/178 387/452/338
f 225/453/178 221/451/174 223/454/175
f 235/455/180 236/456/190 225/453/178
f 225/453/178 236/456/190 254/457/207
f 254/457/207 260/458/214 225/453/178
f 242/459/194 244/460/197 236/456/190
f 264/461/198 236/456/190 244/460/197
f 236/456/190 264/461/198 254/457/207
f 255/462/209 254/457/207 264/461/198
f 254/457/207 255/462/209 253/463/208
f 258/464/210 260/458/214 254/457/207
f 260/458/214 263/465/217 388/466/339
f 146/467/103 388/466/339 263/465/217
f 273/468/225 274/469/229 265/470/218
f 265/470/218 389/471/220 273/468/225
f 389/471/220 271/472/226 273/468/225
f 270/473/222 271/472/226 389/471/220
f 276/474/228 268/475/223 275/476/230
f 266/477/219 275/476/230 268/475/223
f 390/478/233 268/475/223 391/479/232
f 391/479/232 268/475/223 276/474/228
f 411/480/340 392/481/341 393/482/342
f 394/483/343 393/482/342 392/481/341
f 393/482/342 394/483/343 412/484/344
f 394/483/343 392/481/341 396/485/345
f 395/486/346 396/485/345 392/481/341
f 363/487/335 394/483/343 283/488/240
f 297/489/259 394/483/343 363/487/335
f 412/484/344 394/483/343 297/489/259
f 283/488/240 394/483/343 396/485/345
f 283/488/240 396/485/345 282/490/239
f 396/485/345 397/491/347 282/490/239
f 280/492/237 282/490/239 397/491/347
f 396/485/345 395/486/346 397/491/347
f 395/486/346 93/493/348 397/491/347
f 397/491/347 399/494/349 280/492/237
f 280/492/237 399/494/349 304/495/234
f 397/491/347 93/493/348 399/494/349
f 398/496/350 399/494/349 93/493/348
f 401/497/351 304/495/234 399/494/349
f 399/494/349 398/496/350 401/497/351
f 398/496/350 400/498/352 401/497/351
f 302/499/265 304/495/234 401/497/351
f 402/500/353 401/497/351 400/498/352
f 302/499/265 401/497/351 402/500/353
f 301/501/263 302/499/265 402/500/353
f 301/501/263 402/500/353 300/502/270
f 404/503/354 300/502/270 402/500/353
f 402/500/353 400/498/352 403/504/355
f 402/500/353 403/504/355 407/505/356
f 407/505/356 404/503/354 402/500/353
f 300/502/270 404/503/354 299/506/262
f 407/505/356 299/506/262 404/503/354
f 405/507/357 407/505/356 403/504/355
f 405/507/357 406/508/358 407/505/356
f 407/505/356 298/509/261 299/506/262
f 407/505/356 406/508/358 409/510/260
f 409/510/260 406/508/358 408/511/359
f 409/510/260 298/509/261 407/505/356
f 409/510/260 408/511/359 410/512/360
f 410/512/360 296/513/258 409/510/260
f 408/511/359 411/480/340 410/512/360
f 410/512/360 412/484/344 296/513/258
f 412/484/344 297/489/259 296/513/258
f 410/512/360 411/480/340 393/482/342
f 410/512/360 393/482/342 412/484/344
f 414/514/361 413/515/362 415/516/363
f 413/515/362 416/517/364 417/518/365
f 418/519/366 419/520/367 417/518/365
f 415/516/363 413/515/362 421/521/368
f 426/522/369 421/521/368 413/515/362
f 413/515/362 417/518/365 426/522/369
f 417/518/365 419/520/367 426/522/369
f 419/520/367 420/523/370 422/524/371
f 422/524/371 426/522/369 419/520/367
f 421/521/368 426/522/369 423/525/372
f 422/524/371 424/526/373 425/527/374
f 426/522/369 422/524/371 425/527/374
f 427/528/375 423/525/372 426/522/369
f 428/529/376 434/530/377 426/522/369
f 427/528/375 426/522/369 429/531/378
f 429/531/378 426/522/369 430/532/379
f 426/522/369 434/530/377 430/532/379
f 433/533/380 431/534/381 430/532/379
f 433/533/380 430/532/379 434/530/377
f 428/529/376 432/535/382 434/530/377
f 473/536/297 475/537/383 325/538/384
f 325/538/384 475/537/383 435/539/385
f 435/539/385 477/540/386 436/541/387
f 436/541/387 438/542/290 437/543/275
f 438/542/290 314/544/276 437/543/275
f 438/542/290 436/541/387 477/540/386
f 440/545/293 479/546/292 441/547/294
f 481/548/388 441/547/294 479/546/292
f 444/549/285 443/550/287 486/551/389
f 445/552/284 444/549/285 486/551/389
f 446/553/390 319/554/282 445/552/284
f 318/555/280 319/554/282 447/556/391
f 447/556/391 319/554/282 446/553/390
f 448/557/392 317/558/279 318/555/280
f 449/559/393 316/560/278 317/558/279
f 317/558/279 448/557/392 449/559/393
f 450/561/394 449/559/393 448/557/392
f 451/562/395 450/561/394 448/557/392
f 450/561/394 451/562/395 452/563/396
f 453/564/303 452/563/396 451/562/395
f 327/565/301 452/563/396 453/564/303
f 456/566/397 454/567/302 453/564/303
f 454/567/302 456/566/397 455/568/304
f 458/569/398 336/570/318 457/571/311
f 458/569/398 463/572/399 336/570/318
f 457/571/311 455/568/304 458/569/398
f 456/566/397 458/569/398 455/568/304
f 459/573/400 458/569/398 456/566/397
f 456/566/397 453/564/303 459/573/400
f 451/562/395 459/573/400 453/564/303
f 460/574/401 459/573/400 451/562/395
f 451/562/395 448/557/392 460/574/401
f 447/556/391 460/574/401 448/557/392
f 447/556/391 448/557/392 318/555/280
f 460/574/401 461/575/402 459/573/400
f 460/574/401 447/556/391 461/575/402
f 446/553/390 461/575/402 447/556/391
f 458/569/398 459/573/400 461/575/402
f 462/576/403 461/575/402 446/553/390
f 462/576/403 446/553/390 445/552/284
f 487/577/404 462/576/403 445/552/284
f 463/572/399 461/575/402 462/576/403
f 458/569/398 461/575/402 463/572/399
f 463/572/399 464/578/317 336/570/318
f 467/579/316 464/578/317 465/580/405
f 465/580/405 466/581/406 467/579/316
f 468/582/313 334/583/314 467/579/316
f 467/579/316 469/584/407 468/582/313
f 333/585/310 468/582/313 470/586/408
f 470/586/408 484/587/409 333/585/310
f 484/587/409 471/588/307 333/585/310
f 471/588/307 484/587/409 472/589/306
f 325/538/384 326/590/298 473/536/297
f 474/591/299 476/592/410 473/536/297
f 475/537/383 473/536/297 476/592/410
f 477/540/386 435/539/385 475/537/383
f 477/540/386 475/537/383 476/592/410
f 477/540/386 476/592/410 438/542/290
f 439/593/291 438/542/290 476/592/410
f 476/592/410 478/594/411 439/593/291
f 479/546/292 439/593/291 478/594/411
f 479/546/292 480/595/412 481/548/388
f 442/596/295 441/547/294 481/548/388
f 482/597/413 442/596/295 481/548/388
f 482/597/413 483/598/414 442/596/295
f 443/550/287 442/596/295 483/598/414
f 483/598/414 486/551/389 443/550/287
f 481/548/388 480/595/412 470/586/408
f 481/548/388 469/584/407 482/597/413
f 469/584/407 481/548/388 470/586/408
f 484/587/409 470/586/408 480/595/412
f 480/595/412 479/546/292 484/587/409
f 478/594/411 472/589/306 484/587/409
f 484/587/409 479/546/292 478/594/411
f 476/592/410 474/591/299 478/594/411
f 472/589/306 478/594/411 474/591/299
f 469/584/407 470/586/408 468/582/313
f 482/597/413 469/584/407 483/598/414
f 466/581/406 483/598/414 469/584/407
f 467/579/316 466/581/406 469/584/407
f 486/551/389 483/598/414 466/581/406
f 485/599/415 466/581/406 465/580/405
f 465/580/405 464/578/317 485/599/415
f 463/572/399 485/599/415 464/578/317
f 466/581/406 485/599/415 486/551/389
f 487/577/404 445/552/284 486/551/389
f 462/576/403 487/577/404 463/572/399
f 487/577/404 486/551/389 485/599/415
f 485/599/415 463/572/399 487/577/404
f 309/600/269 488/601/416 305/602/266
f 506/603/417 309/600/269 308/604/271
f 305/602/266 488/601/416 307/605/268
f 491/606/418 307/605/268 488/601/416
f 489/607/419 491/606/418 488/601/416
f 491/606/418 489/607/419 490/608/420
f 278/609/235 307/605/268 491/606/418
f 492/610/421 278/609/235 491/606/418
f 278/609/235 492/610/421 285/611/244
f 490/608/420 492/610/421 491/606/418
f 285/611/244 492/610/421 286/612/243
f 493/613/422 492/610/421 490/608/420
f 494/614/423 492/610/421 493/613/422
f 286/612/243 492/610/421 494/614/423
f 495/615/245 286/612/243 494/614/423
f 495/615/245 494/614/423 493/613/422
f 287/616/247 495/615/245 501/617/248
f 499/618/424 501/617/248 495/615/245
f 499/618/424 495/615/245 493/613/422
f 499/618/424 493/613/422 498/619/425
f 497/620/426 493/613/422 490/608/420
f 498/619/425 493/613/422 497/620/426
f 497/620/426 490/608/420 489/607/419
f 497/620/426 489/607/419 496/621/427
f 488/601/416 496/621/427 489/607/419
f 488/601/416 309/600/269 496/621/427
f 309/600/269 506/603/417 496/621/427
f 500/622/428 498/619/425 497/620/426
f 499/618/424 502/623/255 501/617/248
f 502/623/255 499/618/424 503/624/429
f 498/619/425 503/624/429 499/618/424
f 289/625/250 501/617/248 502/623/255
f 503/624/429 498/619/425 500/622/428
f 504/626/430 500/622/428 497/620/426
f 290/627/251 502/623/255 503/624/429
f 291/628/252 290/627/251 503/624/429
f 291/628/252 503/624/429 310/629/272
f 505/630/431 310/629/272 503/624/429
f 503/624/429 500/622/428 505/630/431
f 500/622/428 504/626/430 505/630/431
f 505/630/431 506/603/417 310/629/272
f 308/604/271 310/629/272 506/603/417
f 505/630/431 504/626/430 506/603/417
f 506/603/417 504/626/430 496/621/427
f 504/626/430 497/620/426 496/621/427
l 19 20
l 21 22
l 23 24
l 25 26
l 66 67
l 82 83
