# Blender 5.0.0
# www.blender.org
g SM_NewYorkH01Component024A.001_SM_NewYorkH01Component024A
v -0.045828 1.003367 -0.711601
v -0.047793 1.008240 -0.707142
v -0.050287 1.008240 -0.713566
v -0.045828 1.699491 -0.711601
v -0.050287 1.694618 -0.713566
v -0.047793 1.694618 -0.707142
v 0.389198 1.694618 -0.514570
v 0.395622 1.694618 -0.517064
v 0.391163 1.699491 -0.519029
v 0.395622 1.008240 -0.517064
v 0.389198 1.008240 -0.514570
v 0.391163 1.003367 -0.519029
v 0.529557 1.008240 -0.833077
v 0.532051 1.008240 -0.826653
v 0.527592 1.003367 -0.828618
v 0.092566 1.694618 -1.025649
v 0.086142 1.694618 -1.023155
v 0.090601 1.699491 -1.021190
v 0.086142 1.008240 -1.023155
v 0.092566 1.008240 -1.025649
v 0.090601 1.003367 -1.021190
v 0.532051 1.694618 -0.826653
v 0.529557 1.694618 -0.833077
v 0.527592 1.699491 -0.828618
vn -0.9229 -0.0040 -0.3851
vn -0.0116 -0.9998 0.0165
vn -0.4068 -0.0040 0.9135
vn -0.4068 0.0117 0.9134
vn -0.0115 0.9998 0.0163
vn -0.9228 0.0119 -0.3851
vn 0.0028 0.9997 0.0227
vn -0.3925 0.0118 0.9197
vn 0.9069 0.0118 0.4211
vn 0.0029 -0.9997 0.0229
vn 0.9070 -0.0039 0.4211
vn -0.3925 -0.0039 0.9198
vn 0.0156 -0.9999 -0.0061
vn 0.4141 -0.0039 -0.9102
vn 0.9198 -0.0039 0.3925
vn 0.0011 0.9999 -0.0124
vn 0.3996 0.0118 -0.9166
vn -0.9102 0.0119 -0.4141
vn 0.0011 -0.9999 -0.0125
vn -0.9102 -0.0039 -0.4141
vn 0.3996 -0.0040 -0.9167
vn 0.0155 0.9999 -0.0060
vn 0.9197 0.0118 0.3925
vn 0.4141 0.0119 -0.9102
vt 0.640625 0.731934
vt 0.644043 0.731445
vt 0.643555 0.735107
vt 0.643555 0.744873
vt 0.644043 0.748291
vt 0.640625 0.747803
vt 0.628906 0.497070
vt 0.628418 0.493652
vt 0.632324 0.494141
vt 0.010063 0.503906
vt 0.010590 0.507568
vt 0.007000 0.506836
vt 0.276123 0.504150
vt 0.276611 0.507568
vt 0.272949 0.507080
vt 0.628906 0.997662
vt 0.628418 0.994209
vt 0.632324 0.994720
vt 0.010063 0.003418
vt 0.010590 0.006836
vt 0.007000 0.006348
vt 0.632324 0.507568
vt 0.632324 0.994209
vt 0.628418 0.507568
vt 0.260498 0.997496
vt 0.260010 0.994041
vt 0.263672 0.994553
vt 0.263672 0.507568
vt 0.263672 0.994041
vt 0.260010 0.507568
vt 0.010590 0.994041
vt 0.276611 0.994209
vt 0.260010 0.493652
vt 0.010590 0.493652
vt 0.260010 0.006836
vt 0.644043 0.485840
vt 0.640625 0.731445
vt 0.640625 0.485840
vt 0.990234 0.485840
vt 0.644043 0.482422
vt 0.990234 0.482422
vt 0.990234 0.731445
vt 0.994141 0.485840
vt 0.994141 0.731445
vt 0.990234 0.735107
vt 0.644043 0.735107
vt 0.994141 0.748291
vt 0.990234 0.993793
vt 0.990234 0.748291
vt 0.994141 0.993793
vt 0.640625 0.993793
vt 0.644043 0.993793
vt 0.640625 0.748291
vt 0.276611 0.493652
vt 0.272949 0.493652
vt 0.276611 0.007324
vt 0.272949 0.007324
vt 0.632324 0.007324
vt 0.632324 0.493652
vt 0.628418 0.007324
vt 0.990234 0.744873
vt 0.644043 0.744873
vt 0.990234 0.997328
vt 0.644043 0.997328
s 1
f 3/1/1 1/2/2 2/3/3
f 6/4/4 4/5/5 5/6/6
f 9/7/7 7/8/8 8/9/9
f 12/10/10 10/11/11 11/12/12
f 15/13/13 13/14/14 14/15/15
f 18/16/16 16/17/17 17/18/18
f 21/19/19 19/20/20 20/21/21
f 16/17/17 19/22/20 17/23/18
f 19/22/20 16/17/17 20/24/21
f 24/25/22 22/26/23 23/27/24
f 22/26/23 13/28/14 23/29/24
f 13/28/14 22/26/23 14/30/15
f 22/26/23 8/31/9 14/30/15
f 10/11/11 14/30/15 8/31/9
f 16/17/17 23/32/24 20/24/21
f 13/14/14 20/24/21 23/32/24
f 5/33/6 17/34/18 3/35/1
f 19/20/20 3/35/1 17/34/18
f 21/36/19 3/37/1 19/38/20
f 1/2/2 3/37/1 21/36/19
f 15/39/13 20/40/21 13/41/14
f 21/36/19 20/40/21 15/39/13
f 15/39/13 12/42/10 21/36/19
f 15/39/13 14/43/15 12/42/10
f 12/42/10 14/43/15 10/44/11
f 21/36/19 12/42/10 1/2/2
f 12/42/10 11/45/12 1/2/2
f 1/2/2 11/45/12 2/46/3
f 8/47/9 24/48/22 9/49/7
f 22/50/23 24/48/22 8/47/9
f 17/51/18 4/5/5 18/52/16
f 5/53/6 4/5/5 17/51/18
f 6/54/4 5/55/6 2/56/3
f 3/57/1 2/56/3 5/55/6
f 7/8/8 10/58/11 8/59/9
f 10/58/11 7/8/8 11/60/12
f 7/8/8 6/54/4 11/60/12
f 2/56/3 11/60/12 6/54/4
f 7/61/8 9/49/7 6/62/4
f 6/62/4 9/49/7 4/5/5
f 4/5/5 9/49/7 18/52/16
f 24/48/22 18/52/16 9/49/7
f 23/63/24 18/52/16 24/48/22
f 16/64/17 18/52/16 23/63/24
