# Blender 5.0.0
# www.blender.org
g SM_NewYorkH01Prop002A.001_SM_NewYorkH01Prop002A
v 2.085396 1.007524 1.270190
v 2.085396 0.998556 1.270190
v 2.085872 1.007524 1.259661
v 2.085872 0.998556 1.259661
v 2.085872 1.007524 1.259661
v 2.085872 0.998556 1.259661
v 2.096020 1.007524 1.256786
v 2.096020 0.998556 1.256786
v -1.998997 0.998556 -0.934718
v -2.075012 1.010015 -0.606754
v -2.003112 1.002385 -0.936838
v -2.081858 0.998556 -0.568797
v -1.459597 1.005709 0.367327
v -1.037541 1.023706 1.017303
v -1.491911 1.009542 0.990208
v -0.989066 1.012372 0.392023
v -1.037541 1.031466 1.017303
v -1.459597 1.013469 0.367327
v -1.491911 1.017303 0.990208
v -0.989066 1.020132 0.392023
v -1.459597 1.013469 0.367327
v -0.989066 1.020132 0.392023
v -0.989066 1.012372 0.392023
v -1.459597 1.005709 0.367327
v -1.459597 1.013469 0.367327
v -1.491911 1.009542 0.990208
v -1.491911 1.017303 0.990208
v -1.459597 1.005709 0.367327
v -1.491911 1.017303 0.990208
v -1.037541 1.023706 1.017303
v -1.037541 1.031466 1.017303
v -1.491911 1.009542 0.990208
v -0.989066 1.020132 0.392023
v -1.037541 1.031466 1.017303
v -1.037541 1.023706 1.017303
v -0.989066 1.012372 0.392023
v -1.404971 1.014459 0.391933
v -0.983203 1.033553 1.041909
v -1.437263 1.020341 1.014814
v -0.934761 1.020823 0.416629
v -0.982916 1.041308 1.041909
v -1.404684 1.022215 0.391933
v -1.436977 1.028096 1.014814
v -0.934475 1.028579 0.416628
v -1.404684 1.022215 0.391933
v -0.934475 1.028579 0.416628
v -0.934761 1.020823 0.416629
v -1.404971 1.014459 0.391933
v -1.404684 1.022215 0.391933
v -1.437263 1.020341 1.014814
v -1.436977 1.028096 1.014814
v -1.404971 1.014459 0.391933
v -1.436977 1.028096 1.014814
v -0.983203 1.033553 1.041909
v -0.982916 1.041308 1.041909
v -1.437263 1.020341 1.014814
v -0.934475 1.028579 0.416628
v -0.982916 1.041308 1.041909
v -0.983203 1.033553 1.041909
v -0.934761 1.020823 0.416629
v -1.310978 1.038443 0.436765
v -0.792058 1.039605 1.011783
v -1.244535 1.044968 1.056909
v -0.842939 1.030728 0.386713
v -0.791706 1.047357 1.011815
v -1.310626 1.046196 0.436798
v -1.244183 1.052720 1.056942
v -0.842587 1.038480 0.386746
v -1.310626 1.046196 0.436798
v -0.842587 1.038480 0.386746
v -0.842939 1.030728 0.386713
v -1.310978 1.038443 0.436765
v -1.310626 1.046196 0.436798
v -1.244535 1.044968 1.056909
v -1.244183 1.052720 1.056942
v -1.310978 1.038443 0.436765
v -1.244183 1.052720 1.056942
v -0.792058 1.039605 1.011783
v -0.791706 1.047357 1.011815
v -1.244535 1.044968 1.056909
v -0.842587 1.038480 0.386746
v -0.791706 1.047357 1.011815
v -0.792058 1.039605 1.011783
v -0.842939 1.030728 0.386713
v -1.818027 1.022872 -1.097582
v -1.789172 1.025523 -1.244014
v -1.750728 1.014048 -1.228889
v -1.811956 1.029034 -1.254405
v -1.868760 1.026480 -0.998745
v -1.834741 1.029879 -1.265463
v -1.919825 1.027213 -0.900158
v -1.857525 1.026963 -1.276438
v -1.954484 1.026680 -0.835157
v -1.880309 1.021380 -1.287412
v -1.989476 1.024147 -0.770406
v -1.905618 1.012400 -1.299602
v -2.032303 1.017248 -0.696617
v -2.048442 1.013548 -0.664770
v -2.068099 1.007524 -0.603819
v -1.906772 1.008688 -1.301484
v -1.641996 1.007524 -1.294511
v -2.072554 1.007524 -0.578840
v -2.079974 1.007524 -0.190682
v -1.586940 1.007524 -1.253450
v -1.537385 1.007524 -1.269815
v -1.493863 1.007524 -1.272272
v -1.444325 1.007524 -1.293402
v -0.943733 1.007524 -1.294252
v -0.765337 1.007524 1.210341
v -2.102110 1.007524 0.598439
v -2.077948 1.007524 1.268226
v -0.144746 1.007524 -1.249904
v 0.547368 1.007524 1.259920
v 0.559537 1.007524 1.245377
v 0.578270 1.007524 -1.259953
v 0.610762 1.007524 -1.251012
v 0.586676 1.007524 1.240484
v 0.627008 1.007524 -1.252221
v 0.655843 1.007524 -1.242498
v 0.624731 1.007524 1.254983
v 2.040998 1.007524 -0.001873
v 0.670305 1.007524 -1.265902
v 1.105789 1.007524 -1.244621
v 2.051020 1.007524 0.058900
v 2.060201 1.007524 0.110275
v 2.054647 1.007524 -0.024819
v 1.318370 1.007524 1.303116
v 1.134238 1.007524 -1.225420
v 2.105456 1.007524 0.692194
v 1.155072 1.007524 -1.248313
v 2.071479 1.007524 1.273583
v 1.342255 1.007524 -1.219106
v 1.371349 1.007524 -1.193166
v 2.085872 1.007524 1.259661
v 2.096020 1.007524 1.256786
v 2.085396 1.007524 1.270190
v 2.043695 1.007524 -0.833556
v 1.413969 1.007524 -1.209194
v 1.441415 1.007524 -1.235724
v 2.022039 1.007524 -1.266503
v 2.042361 1.007524 -1.247043
v 2.063733 1.007524 -1.248772
v 2.085769 1.007524 -1.238105
v -1.816281 1.029436 -1.096889
v -1.748535 1.020486 -1.228287
v -1.787662 1.032168 -1.243608
v -1.811399 1.035749 -1.254219
v -1.868360 1.033123 -0.998458
v -1.835137 1.036664 -1.265497
v -1.920773 1.033934 -0.900276
v -1.858652 1.033635 -1.276641
v -1.955652 1.033381 -0.835241
v -1.882166 1.027939 -1.287786
v -1.990863 1.030829 -0.770457
v -2.035241 1.024247 -0.701065
v -1.999260 1.016131 -0.939452
v -1.909182 1.018180 -1.300303
v -2.054685 1.019222 -0.666613
v -2.003802 1.010069 -0.938764
v -1.913765 1.011188 -1.302258
v -1.913227 1.003303 -1.302937
v -1.907045 0.998556 -1.302477
v -1.818027 1.022872 -1.097582
v -1.750728 1.014048 -1.228889
v -1.748535 1.020486 -1.228287
v -1.816281 1.029436 -1.096889
v -1.868760 1.026480 -0.998745
v -1.868360 1.033123 -0.998458
v -1.919825 1.027213 -0.900158
v -1.920773 1.033934 -0.900276
v -1.955652 1.033381 -0.835241
v -1.954484 1.026680 -0.835157
v -1.990863 1.030829 -0.770457
v -1.989476 1.024147 -0.770406
v -2.035241 1.024247 -0.701065
v -2.032303 1.017248 -0.696617
v -2.054685 1.019222 -0.666613
v -2.048442 1.013548 -0.664770
v -2.075012 1.010015 -0.606754
v -2.068099 1.007524 -0.603819
v -2.072554 1.007524 -0.578840
v -2.081858 0.998556 -0.568797
v -1.906772 1.008688 -1.301484
v -1.907045 0.998556 -1.302477
v -1.913227 1.003303 -1.302937
v -1.913765 1.011188 -1.302258
v -1.905618 1.012400 -1.299602
v -1.909182 1.018180 -1.300303
v -1.882166 1.027939 -1.287786
v -1.880309 1.021380 -1.287412
v -1.857525 1.026963 -1.276438
v -1.858652 1.033635 -1.276641
v -1.834741 1.029879 -1.265463
v -1.835137 1.036664 -1.265497
v -1.811399 1.035749 -1.254219
v -1.811956 1.029034 -1.254405
v -1.789172 1.025523 -1.244014
v -1.787662 1.032168 -1.243608
v -1.748535 1.020486 -1.228287
v -1.750728 1.014048 -1.228889
v -1.641996 0.998556 -1.294511
v -1.641996 1.007524 -1.294511
v -1.586940 0.998556 -1.253450
v -1.586940 1.007524 -1.253450
v -1.537385 0.998556 -1.269815
v -1.537385 1.007524 -1.269815
v -1.493863 0.998556 -1.272272
v -1.493863 1.007524 -1.272272
v -1.444325 0.998556 -1.293402
v -1.444325 1.007524 -1.293402
v -0.943733 1.007524 -1.294252
v -0.943733 0.998556 -1.294252
v -0.144747 0.998556 -1.249905
v -0.144746 1.007524 -1.249904
v 0.578270 0.998556 -1.259953
v 0.578270 1.007524 -1.259953
v 0.610543 0.998556 -1.251347
v 0.610762 1.007524 -1.251012
v 0.626569 0.998556 -1.252891
v 0.627008 1.007524 -1.252221
v 0.655843 0.998556 -1.242498
v 0.655843 1.007524 -1.242498
v -2.077948 1.007524 1.268226
v -2.104769 0.998556 0.601534
v -2.077948 0.998556 1.268226
v -2.102110 1.007524 0.598439
v -2.081045 0.998556 -0.184497
v -2.079974 1.007524 -0.190682
v 2.085396 1.007524 1.270190
v 2.071479 0.998556 1.273583
v 2.085396 0.998556 1.270190
v 2.071479 1.007524 1.273583
v 1.318370 0.998556 1.303116
v 1.318370 1.007524 1.303116
v 0.624731 1.007524 1.254983
v 0.624731 0.998556 1.254983
v 0.586676 1.007524 1.240484
v 0.586676 0.998556 1.240484
v 0.559537 1.007524 1.245377
v 0.559537 0.998556 1.245377
v 0.547368 0.998556 1.259920
v 0.547368 1.007524 1.259920
v -0.765337 1.007524 1.210341
v -0.765337 0.998556 1.210341
v -2.077948 1.007524 1.268226
v -2.077948 0.998556 1.268226
v 2.063734 0.998556 -1.248772
v 2.085769 1.007524 -1.238105
v 2.085769 0.998556 -1.238105
v 2.063733 1.007524 -1.248772
v 2.042361 0.998556 -1.247043
v 2.042361 1.007524 -1.247043
v 2.022039 1.007524 -1.266503
v 2.022039 0.998556 -1.266503
v 1.441415 1.007524 -1.235724
v 1.441415 0.998556 -1.235724
v 1.413969 1.007524 -1.209194
v 1.413969 0.998556 -1.209194
v 1.371349 1.007524 -1.193166
v 1.371349 0.998556 -1.193166
v 1.342255 1.007524 -1.219106
v 1.342255 0.998556 -1.219106
v 1.155072 1.007524 -1.248313
v 1.155072 0.998556 -1.248313
v 1.134238 0.998556 -1.225420
v 1.134238 1.007524 -1.225420
v 0.529533 1.049369 -0.351880
v 0.385698 1.006610 -0.351753
v 0.529533 1.006610 -0.351880
v 0.385698 1.049369 -0.351753
v 0.313669 1.006610 -0.476254
v 0.313669 1.049369 -0.476254
v 0.385476 1.006610 -0.600883
v 0.385476 1.049369 -0.600883
v 0.529311 1.006610 -0.601010
v 0.529311 1.049369 -0.601010
v 0.601340 1.006610 -0.476509
v 0.601340 1.049369 -0.476509
v 1.376154 1.048909 -0.019000
v 1.309601 1.048909 0.108512
v 1.309601 1.006150 0.108512
v 1.376154 1.006150 -0.019000
v 1.299003 1.048909 -0.140393
v 1.299003 1.006150 -0.140393
v 1.155298 1.048909 -0.134274
v 1.155298 1.006150 -0.134274
v 1.088744 1.048909 -0.006763
v 1.088744 1.006150 -0.006763
v 1.165896 1.006150 0.114630
v 1.165896 1.048909 0.114630
v 0.941184 1.064005 -0.025060
v 1.087266 1.049606 0.006077
v 1.079379 1.091568 0.003768
v 0.949071 1.022043 -0.022751
v 0.897875 1.048367 -0.161326
v 0.905763 1.006405 -0.159017
v 1.000649 1.018330 -0.266455
v 0.992762 1.060292 -0.268764
v 1.138844 1.045893 -0.237627
v 1.130957 1.087855 -0.239936
v 1.182153 1.061531 -0.101361
v 1.174265 1.103493 -0.103670
v 1.182153 1.061531 -0.101361
v 1.000649 1.018330 -0.266455
v 1.138844 1.045893 -0.237627
v 0.905763 1.006405 -0.159017
v 1.087266 1.049606 0.006077
v 0.949071 1.022043 -0.022751
v 1.174265 1.103493 -0.103670
v 1.130957 1.087855 -0.239936
v 0.992762 1.060292 -0.268764
v 0.897875 1.048367 -0.161326
v 1.079379 1.091568 0.003768
v 0.941184 1.064005 -0.025060
v 0.670305 0.998556 -1.265901
v 0.670305 1.007524 -1.265902
v 1.105789 1.007524 -1.244621
v 1.105789 0.998556 -1.244621
v 2.085769 1.007524 -1.238105
v 2.043695 1.007524 -0.833556
v 2.085769 0.998556 -1.238105
v 2.043695 0.998556 -0.833556
v 2.054647 0.998556 -0.024819
v 2.054647 1.007524 -0.024819
v 2.040998 0.998556 -0.001873
v 2.040998 1.007524 -0.001873
v 2.051020 1.007524 0.058900
v 2.051019 0.998556 0.058900
v 2.060202 0.998556 0.110275
v 2.060201 1.007524 0.110275
v 2.105456 0.998556 0.692194
v 2.105456 1.007524 0.692194
v 2.096020 1.007524 1.256786
v 2.096020 0.998556 1.256786
v -1.998997 0.998556 -0.934718
v -1.907045 0.998556 -1.302477
v -1.641996 0.998556 -1.294511
v -2.081858 0.998556 -0.568797
v -2.081045 0.998556 -0.184497
v -1.586940 0.998556 -1.253450
v -1.537385 0.998556 -1.269815
v -1.493863 0.998556 -1.272272
v -1.444325 0.998556 -1.293402
v -0.943733 0.998556 -1.294252
v -0.765337 0.998556 1.210341
v -2.104769 0.998556 0.601534
v -2.077948 0.998556 1.268226
v -0.144747 0.998556 -1.249905
v 0.547368 0.998556 1.259920
v 0.559537 0.998556 1.245377
v 0.578270 0.998556 -1.259953
v 0.610543 0.998556 -1.251347
v 0.586676 0.998556 1.240484
v 0.626569 0.998556 -1.252891
v 0.655843 0.998556 -1.242498
v 0.624731 0.998556 1.254983
v 2.040998 0.998556 -0.001873
v 0.670305 0.998556 -1.265901
v 1.105789 0.998556 -1.244621
v 2.051019 0.998556 0.058900
v 2.060202 0.998556 0.110275
v 2.054647 0.998556 -0.024819
v 1.318370 0.998556 1.303116
v 1.134238 0.998556 -1.225420
v 2.105456 0.998556 0.692194
v 1.155072 0.998556 -1.248313
v 2.071479 0.998556 1.273583
v 1.342255 0.998556 -1.219106
v 1.371349 0.998556 -1.193166
v 2.085872 0.998556 1.259661
v 2.085396 0.998556 1.270190
v 2.096020 0.998556 1.256786
v 2.043695 0.998556 -0.833556
v 1.413969 0.998556 -1.209194
v 1.441415 0.998556 -1.235724
v 2.022039 0.998556 -1.266503
v 2.042361 0.998556 -1.247043
v 2.063734 0.998556 -1.248772
v 2.085769 0.998556 -1.238105
v 0.529311 1.006610 -0.601010
v 0.313669 1.006610 -0.476254
v 0.385476 1.006610 -0.600883
v 0.601340 1.006610 -0.476509
v 0.529533 1.006610 -0.351880
v 0.385698 1.006610 -0.351753
v 0.529533 1.049369 -0.351880
v 0.313669 1.049369 -0.476254
v 0.385698 1.049369 -0.351753
v 0.601340 1.049369 -0.476509
v 0.529311 1.049369 -0.601010
v 0.385476 1.049369 -0.600883
v 1.299003 1.006150 -0.140393
v 1.088744 1.006150 -0.006763
v 1.155298 1.006150 -0.134274
v 1.376154 1.006150 -0.019000
v 1.309601 1.006150 0.108512
v 1.165896 1.006150 0.114630
v 1.376154 1.048909 -0.019000
v 1.165896 1.048909 0.114630
v 1.309601 1.048909 0.108512
v 1.088744 1.048909 -0.006763
v 1.155298 1.048909 -0.134274
v 1.299003 1.048909 -0.140393
vn 0.9991 0.0039 0.0426
vn 0.9991 0.0040 0.0425
vn 0.9991 0.0039 0.0425
vn 0.2740 0.0040 0.9617
vn 0.2740 0.0039 0.9617
vn -0.9019 -0.3741 -0.2158
vn -0.0039 -1.0000 -0.0040
vn -0.9727 0.0898 -0.2139
vn -0.0039 -1.0000 -0.0039
vn 0.0198 -0.9997 0.0118
vn -0.0275 0.9994 -0.0196
vn -0.0274 0.9994 -0.0196
vn 0.0500 0.0039 -0.9987
vn -0.9983 0.0039 -0.0578
vn -0.0661 0.0039 0.9978
vn 0.9972 0.0039 0.0740
vn 0.9973 0.0040 0.0740
vn 0.0198 -0.9997 0.0119
vn -0.9974 0.0430 -0.0578
vn -0.0662 0.0039 0.9978
vn 0.9966 -0.0355 0.0740
vn 0.9966 -0.0354 0.0740
vn -0.0197 -0.9997 0.0119
vn 0.0117 0.9997 -0.0196
vn 0.0118 0.9997 -0.0196
vn -0.1070 0.0118 -0.9942
vn -0.9938 0.0511 0.0991
vn 0.0921 -0.0040 0.9957
vn 0.9955 -0.0436 -0.0841
vn 0.9955 -0.0436 -0.0842
vn -0.2651 -0.9613 -0.0749
vn -0.1928 -0.9795 -0.0588
vn -0.0912 -0.9952 -0.0356
vn 0.0118 -0.9999 -0.0040
vn 0.0119 -0.9999 -0.0040
vn 0.1226 -0.9921 0.0276
vn 0.2339 -0.9709 0.0513
vn 0.3924 -0.9153 0.0908
vn 0.2966 -0.9527 0.0669
vn 0.5497 -0.8264 0.1221
vn 0.0353 0.9994 0.0039
vn 0.0117 0.9999 0.0039
vn -0.0039 1.0000 -0.0039
vn 0.1839 0.9816 0.0507
vn 0.1838 0.9816 0.0507
vn 0.2559 0.9644 0.0667
vn 0.0827 0.9962 0.0275
vn -0.0196 0.9998 -0.0039
vn -0.1293 0.9910 -0.0351
vn -0.2540 0.9649 -0.0662
vn -0.2004 0.9784 -0.0509
vn -0.3013 0.9506 -0.0741
vn -0.4800 0.8700 -0.1127
vn -0.4981 0.8586 -0.1211
vn -0.6515 0.7449 -0.1437
vn -0.9210 0.3252 -0.2147
vn -0.9370 0.2626 -0.2304
vn -0.8695 -0.4445 -0.2156
vn 0.8409 -0.2960 0.4530
vn 0.8558 -0.2427 0.4568
vn 0.8558 -0.2428 0.4568
vn 0.8839 -0.0673 0.4628
vn 0.8839 -0.0674 0.4628
vn 0.8829 0.0831 0.4622
vn 0.8674 0.1623 0.4704
vn 0.8674 0.1623 0.4703
vn 0.8115 0.3125 0.4938
vn 0.7223 0.5010 0.4767
vn 0.5144 0.7966 0.3174
vn 0.2007 0.9555 0.2161
vn 0.4224 0.8801 0.2167
vn -0.8491 0.5283 -0.0031
vn -0.8582 0.5133 -0.0031
vn 0.1365 0.0982 -0.9858
vn 0.0343 0.0587 -0.9977
vn 0.0265 0.0587 -0.9979
vn 0.2230 0.1532 -0.9627
vn 0.3715 0.1137 -0.9214
vn 0.4021 0.0822 -0.9119
vn 0.4021 0.0821 -0.9119
vn 0.4190 0.0510 -0.9066
vn 0.4189 0.0510 -0.9066
vn 0.4258 0.0195 -0.9046
vn 0.4259 0.0195 -0.9046
vn 0.4195 -0.0039 -0.9077
vn 0.4195 -0.0039 -0.9078
vn 0.3712 -0.0196 -0.9284
vn 0.3549 -0.0274 -0.9345
vn 0.1361 0.0430 -0.9898
vn 0.1360 0.0430 -0.9898
vn 0.2223 0.0039 -0.9750
vn -0.2000 0.0039 -0.9798
vn -0.2480 0.0039 -0.9687
vn -0.2480 0.0039 -0.9688
vn -0.0440 0.0039 -0.9990
vn 0.0266 0.0039 -0.9996
vn 0.0187 0.0040 -0.9998
vn 0.0187 0.0039 -0.9998
vn -0.0048 0.0039 -1.0000
vn 0.1449 0.0354 -0.9888
vn 0.1448 0.0354 -0.9888
vn 0.1830 0.0431 -0.9822
vn 0.1830 0.0430 -0.9822
vn -0.2957 0.0196 -0.9551
vn -0.2957 0.0197 -0.9551
vn -0.9875 0.1534 0.0363
vn -0.9843 0.1765 -0.0030
vn -0.9530 0.3020 -0.0266
vn -0.9530 0.3019 -0.0266
vn 0.2350 0.0040 0.9720
vn 0.0365 0.0040 0.9993
vn -0.0189 0.0040 0.9998
vn -0.0897 0.0039 0.9960
vn -0.1526 0.0039 0.9883
vn 0.4401 0.0040 0.8979
vn 0.4401 0.0039 0.8979
vn -0.0267 0.0040 0.9996
vn -0.0267 -0.0000 0.9996
vn -0.0031 0.0040 1.0000
vn 0.0364 0.0039 0.9993
vn 0.4290 0.0039 -0.9033
vn 0.1998 0.0039 -0.9798
vn 0.3874 0.0039 -0.9219
vn -0.0205 0.0040 -0.9998
vn -0.0205 -0.0000 -0.9998
vn -0.0993 -0.0000 -0.9951
vn -0.0992 0.0038 -0.9951
vn -0.5198 0.0039 -0.8543
vn 0.1285 0.0039 -0.9917
vn 0.2389 0.0039 -0.9710
vn 0.0265 -0.0000 -0.9996
vn 0.0265 0.0039 -0.9996
vn -0.0752 0.0039 -0.9972
vn 0.4965 0.0040 0.8680
vn -0.5068 0.0039 0.8621
vn -0.5067 0.0039 0.8621
vn -1.0000 0.0039 -0.0030
vn -0.5049 0.0039 -0.8632
vn -0.5048 0.0039 -0.8632
vn 0.4916 0.0039 -0.8708
vn 0.4915 0.0039 -0.8708
vn 1.0000 0.0040 -0.0049
vn 1.0000 0.0039 -0.0048
vn 0.5361 0.0040 0.8442
vn 0.9990 0.0039 -0.0443
vn 0.5361 0.0039 0.8442
vn 0.4574 0.0039 -0.8893
vn -0.5381 0.0039 -0.8429
vn -0.9993 0.0039 0.0362
vn -0.4667 0.0039 0.8844
vn 0.2983 0.1150 0.9475
vn -0.6636 -0.0825 0.7435
vn -0.9608 -0.1843 -0.2069
vn -0.9608 -0.1843 -0.2070
vn -0.3034 -0.1061 -0.9469
vn -0.3035 -0.1061 -0.9469
vn 0.6549 0.0903 -0.7503
vn 0.9603 0.1936 0.2007
vn 0.1776 -0.9828 0.0511
vn 0.1777 -0.9828 0.0512
vn -0.1838 0.9812 -0.0585
vn -0.1838 0.9812 -0.0584
vn -0.0048 -0.0000 -1.0000
vn 0.0812 0.0039 -0.9967
vn 0.9952 0.0040 0.0982
vn 0.9998 0.0040 0.0189
vn 0.9998 0.0039 0.0189
vn 1.0000 0.0039 0.0031
vn 0.9991 0.0040 0.0426
vn 0.9853 0.0040 -0.1710
vn 0.9958 0.0039 -0.0914
vn 0.9993 0.0039 -0.0364
vn 0.9993 0.0040 -0.0364
vn 0.9999 0.0039 0.0110
vn -0.0040 -1.0000 -0.0040
vt 0.010162 0.992493
vt 0.011421 0.992493
vt 0.011421 0.997517
vt 0.010162 0.997517
vt 0.004669 0.992493
vt 0.007221 0.992493
vt 0.007221 0.997517
vt 0.004669 0.997519
vt 0.762207 0.627197
vt 0.763184 0.627686
vt 0.748535 0.682373
vt 0.749023 0.689209
vt 0.993164 0.854736
vt 0.993164 0.993263
vt 0.890625 0.854736
vt 0.890625 0.993263
vt 0.874512 0.994949
vt 0.771973 0.994949
vt 0.874512 0.856445
vt 0.771973 0.856445
vt 0.771973 0.847778
vt 0.874512 0.849487
vt 0.771973 0.849487
vt 0.874512 0.847778
vt 0.883789 0.855957
vt 0.883789 0.994495
vt 0.881836 0.855957
vt 0.881836 0.994495
vt 0.708008 0.564697
vt 0.708008 0.586182
vt 0.702637 0.564697
vt 0.698242 0.564697
vt 0.708008 0.604980
vt 0.693848 0.564697
vt 0.708008 0.623779
vt 0.689941 0.564697
vt 0.708008 0.636230
vt 0.685547 0.564697
vt 0.708008 0.648682
vt 0.681152 0.564697
vt 0.708008 0.663330
vt 0.708008 0.668457
vt 0.708008 0.678711
vt 0.679688 0.564697
vt 0.634277 0.564697
vt 0.708008 0.682373
vt 0.708008 0.746582
vt 0.625000 0.571533
vt 0.616699 0.568848
vt 0.609375 0.568604
vt 0.601562 0.564941
vt 0.518555 0.564941
vt 0.489258 0.987167
vt 0.708008 0.877441
vt 0.708008 0.987167
vt 0.387451 0.565186
vt 0.271729 0.987511
vt 0.269531 0.984795
vt 0.266846 0.564941
vt 0.261475 0.566406
vt 0.265137 0.983673
vt 0.258789 0.566162
vt 0.253174 0.567871
vt 0.258789 0.985825
vt 0.017166 0.778564
vt 0.250977 0.563965
vt 0.178711 0.567627
vt 0.015518 0.788696
vt 0.014008 0.797119
vt 0.014908 0.774780
vt 0.143799 0.985924
vt 0.173950 0.570801
vt 0.014084 0.893616
vt 0.170532 0.566895
vt 0.018982 0.985924
vt 0.139526 0.571777
vt 0.134644 0.576172
vt 0.016632 0.983459
vt 0.014084 0.982986
vt 0.016632 0.985207
vt 0.015121 0.640625
vt 0.127563 0.573486
vt 0.123047 0.569092
vt 0.025925 0.568848
vt 0.022552 0.572266
vt 0.019012 0.571777
vt 0.015366 0.573730
vt 0.748047 0.565186
vt 0.742188 0.589355
vt 0.740723 0.564697
vt 0.752441 0.564941
vt 0.743652 0.607910
vt 0.756836 0.564941
vt 0.744629 0.626465
vt 0.761230 0.564941
vt 0.745605 0.638916
vt 0.765625 0.564941
vt 0.746094 0.651367
vt 0.748535 0.665039
vt 0.759766 0.626221
vt 0.770996 0.564941
vt 0.749023 0.671631
vt 0.760742 0.626709
vt 0.772461 0.565186
vt 0.773926 0.565186
vt 0.774902 0.565186
vt 0.735840 0.564941
vt 0.734863 0.589600
vt 0.734863 0.564941
vt 0.735840 0.589600
vt 0.734863 0.608643
vt 0.735840 0.608643
vt 0.734863 0.627930
vt 0.735840 0.627930
vt 0.735840 0.640381
vt 0.734863 0.640381
vt 0.735840 0.653076
vt 0.734863 0.653076
vt 0.735840 0.669189
vt 0.734863 0.669189
vt 0.735840 0.675537
vt 0.734863 0.675537
vt 0.735840 0.681152
vt 0.734863 0.680908
vt 0.734863 0.684814
vt 0.735840 0.687500
vt 0.716797 0.511719
vt 0.719727 0.515625
vt 0.713379 0.514648
vt 0.721680 0.511230
vt 0.724121 0.516846
vt 0.728516 0.514893
vt 0.728516 0.541260
vt 0.724121 0.541260
vt 0.724121 0.560059
vt 0.728516 0.560059
vt 0.724121 0.578857
vt 0.728516 0.578857
vt 0.728516 0.595215
vt 0.724121 0.595215
vt 0.724121 0.611572
vt 0.728516 0.611572
vt 0.728516 0.642090
vt 0.724121 0.642090
vt 0.682617 0.550537
vt 0.682617 0.556152
vt 0.638672 0.550537
vt 0.638672 0.556152
vt 0.629395 0.550537
vt 0.629395 0.556152
vt 0.621094 0.550537
vt 0.621094 0.556152
vt 0.613770 0.550537
vt 0.613770 0.556152
vt 0.605957 0.550537
vt 0.605957 0.556152
vt 0.522949 0.556152
vt 0.522949 0.550537
vt 0.390381 0.550537
vt 0.390381 0.556152
vt 0.270752 0.550537
vt 0.270752 0.556152
vt 0.265137 0.550537
vt 0.265137 0.556152
vt 0.262695 0.550537
vt 0.262695 0.556152
vt 0.258301 0.550537
vt 0.258301 0.556152
vt 0.717285 0.990364
vt 0.712891 0.990364
vt 0.717285 0.880188
vt 0.712891 0.880188
vt 0.717285 0.750000
vt 0.712891 0.750000
vt 0.717285 0.687012
vt 0.712891 0.685303
vt 0.015244 0.997517
vt 0.015244 0.992493
vt 0.016922 0.997519
vt 0.016922 0.992493
vt 0.141846 0.997517
vt 0.141846 0.992493
vt 0.256592 0.992493
vt 0.256592 0.997519
vt 0.262939 0.992493
vt 0.262939 0.997517
vt 0.267090 0.992493
vt 0.267090 0.997519
vt 0.269531 0.997517
vt 0.269531 0.992493
vt 0.486816 0.992493
vt 0.486816 0.997519
vt 0.704590 0.992493
vt 0.704590 0.997517
vt 0.010666 0.552002
vt 0.014091 0.552002
vt 0.010666 0.557617
vt 0.014091 0.557617
vt 0.017700 0.552002
vt 0.017700 0.557617
vt 0.020950 0.557617
vt 0.020950 0.552002
vt 0.118347 0.557617
vt 0.118347 0.552002
vt 0.123169 0.557617
vt 0.123169 0.552002
vt 0.130371 0.557617
vt 0.130371 0.552002
vt 0.135254 0.557617
vt 0.135254 0.552002
vt 0.165771 0.557617
vt 0.165771 0.552002
vt 0.170776 0.552002
vt 0.170776 0.557617
vt 0.720703 0.696289
vt 0.727051 0.696289
vt 0.720703 0.717285
vt 0.727051 0.717285
vt 0.720703 0.738281
vt 0.727051 0.738281
vt 0.720703 0.759155
vt 0.727051 0.759155
vt 0.720703 0.780151
vt 0.727051 0.780151
vt 0.720703 0.801147
vt 0.727051 0.801147
vt 0.720703 0.822021
vt 0.727051 0.822021
vt 0.743164 0.822510
vt 0.749023 0.801514
vt 0.749023 0.822510
vt 0.743164 0.801514
vt 0.749023 0.780518
vt 0.743164 0.780518
vt 0.749023 0.759521
vt 0.743164 0.759521
vt 0.749023 0.738525
vt 0.743164 0.738525
vt 0.743164 0.717529
vt 0.749023 0.717529
vt 0.749023 0.696777
vt 0.743164 0.696777
vt 0.737793 0.696289
vt 0.737793 0.717285
vt 0.731445 0.696289
vt 0.731445 0.717285
vt 0.737793 0.738281
vt 0.731445 0.738281
vt 0.731445 0.759155
vt 0.737793 0.759155
vt 0.731445 0.780151
vt 0.737793 0.780151
vt 0.731445 0.801147
vt 0.737793 0.801147
vt 0.737793 0.822021
vt 0.731445 0.822021
vt 0.730957 0.871582
vt 0.720703 0.853516
vt 0.751953 0.871582
vt 0.762695 0.853516
vt 0.730957 0.835327
vt 0.751953 0.835327
vt 0.752930 0.876282
vt 0.721680 0.894409
vt 0.731934 0.876282
vt 0.763672 0.894409
vt 0.731934 0.912598
vt 0.752930 0.912598
vt 0.254395 0.552002
vt 0.254395 0.557617
vt 0.251465 0.552002
vt 0.251465 0.557617
vt 0.179565 0.557617
vt 0.179565 0.552002
vt 0.176025 0.552002
vt 0.176025 0.557617
vt 0.004929 0.574219
vt 0.008896 0.574219
vt 0.008896 0.641602
vt 0.004929 0.641602
vt 0.004929 0.776001
vt 0.008896 0.776001
vt 0.004929 0.779907
vt 0.008896 0.779907
vt 0.008896 0.789429
vt 0.004929 0.789429
vt 0.004929 0.797852
vt 0.008896 0.797852
vt 0.004929 0.894409
vt 0.008896 0.894409
vt 0.008896 0.984055
vt 0.004929 0.984055
vt 0.634277 0.564941
vt 0.685059 0.618896
vt 0.677734 0.564941
vt 0.692871 0.679443
vt 0.700195 0.746582
vt 0.700195 0.877441
vt 0.700195 0.987167
vt 0.753418 0.993332
vt 0.732422 0.993332
vt 0.763672 0.975174
vt 0.721680 0.975174
vt 0.732422 0.957001
vt 0.753418 0.957001
vt 0.731445 0.952850
vt 0.721191 0.934692
vt 0.752441 0.952850
vt 0.763184 0.934692
vt 0.752441 0.916565
vt 0.731445 0.916565
s 1
f 3/1/1 1/2/1 2/3/2
f 4/4/3 3/1/1 2/3/2
f 7/5/4 5/6/4 6/7/4
f 8/8/5 7/5/4 6/7/4
f 11/9/6 9/10/7 10/11/8
f 12/12/9 10/11/8 9/10/7
f 15/13/10 13/14/10 14/15/10
f 16/16/10 14/15/10 13/14/10
f 19/17/11 17/18/11 18/19/11
f 20/20/12 18/19/11 17/18/11
f 23/21/13 21/22/13 22/23/13
f 24/24/13 21/22/13 23/21/13
f 27/25/14 25/26/14 26/27/14
f 28/28/14 26/27/14 25/26/14
f 31/22/15 29/23/15 30/24/15
f 32/21/15 30/24/15 29/23/15
f 35/28/16 33/25/16 34/26/17
f 36/27/16 33/25/16 35/28/16
f 39/13/10 37/14/10 38/15/18
f 40/16/10 38/15/18 37/14/10
f 43/17/11 41/18/12 42/19/11
f 44/20/11 42/19/11 41/18/12
f 47/21/13 45/22/13 46/23/13
f 48/24/13 45/22/13 47/21/13
f 51/25/19 49/26/19 50/27/19
f 52/28/19 50/27/19 49/26/19
f 55/22/20 53/23/20 54/24/20
f 56/21/20 54/24/20 53/23/20
f 59/28/21 57/25/22 58/26/21
f 60/27/22 57/25/22 59/28/21
f 63/13/23 61/14/23 62/15/23
f 64/16/23 62/15/23 61/14/23
f 67/17/24 65/18/24 66/19/25
f 68/20/24 66/19/25 65/18/24
f 71/21/26 69/22/26 70/23/26
f 72/24/26 69/22/26 71/21/26
f 75/25/27 73/26/27 74/27/27
f 76/28/27 74/27/27 73/26/27
f 79/22/28 77/23/28 78/24/28
f 80/21/28 78/24/28 77/23/28
f 83/28/29 81/25/30 82/26/29
f 84/27/30 81/25/30 83/28/29
f 87/29/31 85/30/32 86/31/32
f 88/32/33 86/31/32 85/30/32
f 85/30/32 89/33/33 88/32/33
f 90/34/34 88/32/33 89/33/33
f 89/33/33 91/35/35 90/34/34
f 90/34/34 91/35/35 92/36/36
f 91/35/35 93/37/36 92/36/36
f 92/36/36 93/37/36 94/38/37
f 93/37/36 95/39/37 94/38/37
f 94/38/37 95/39/37 96/40/38
f 95/39/37 97/41/39 96/40/38
f 98/42/40 96/40/38 97/41/39
f 99/43/41 96/40/38 98/42/40
f 99/43/41 100/44/42 96/40/38
f 101/45/43 100/44/42 99/43/41
f 99/43/41 102/46/43 101/45/43
f 103/47/43 101/45/43 102/46/43
f 103/47/43 104/48/43 101/45/43
f 103/47/43 105/49/43 104/48/43
f 103/47/43 106/50/43 105/49/43
f 103/47/43 107/51/43 106/50/43
f 103/47/43 108/52/43 107/51/43
f 103/47/43 109/53/43 108/52/43
f 110/54/43 109/53/43 103/47/43
f 109/53/43 110/54/43 111/55/43
f 109/53/43 112/56/43 108/52/43
f 113/57/43 112/56/43 109/53/43
f 113/57/43 114/58/43 112/56/43
f 115/59/43 112/56/43 114/58/43
f 115/59/43 114/58/43 116/60/43
f 117/61/43 116/60/43 114/58/43
f 117/61/43 118/62/43 116/60/43
f 118/62/43 117/61/43 119/63/43
f 117/61/43 120/64/43 119/63/43
f 120/64/43 121/65/43 119/63/43
f 119/63/43 121/65/43 122/66/43
f 123/67/43 122/66/43 121/65/43
f 120/64/43 124/68/43 121/65/43
f 120/64/43 125/69/43 124/68/43
f 126/70/43 123/67/43 121/65/43
f 127/71/43 125/69/43 120/64/43
f 123/67/43 126/70/43 128/72/43
f 129/73/43 125/69/43 127/71/43
f 128/72/43 126/70/43 130/74/43
f 131/75/43 129/73/43 127/71/43
f 130/74/43 126/70/43 132/76/43
f 132/76/43 126/70/43 133/77/43
f 134/78/43 129/73/43 131/75/43
f 135/79/43 129/73/43 134/78/43
f 134/78/43 131/75/43 136/80/43
f 133/77/43 126/70/43 137/81/43
f 133/77/43 137/81/43 138/82/43
f 138/82/43 137/81/43 139/83/43
f 139/83/43 137/81/43 140/84/43
f 140/84/43 137/81/43 141/85/43
f 141/85/43 137/81/43 142/86/43
f 142/86/43 137/81/43 143/87/43
f 146/88/44 144/89/45 145/90/46
f 146/88/44 147/91/47 144/89/45
f 144/89/45 147/91/47 148/92/47
f 147/91/47 149/93/48 148/92/47
f 148/92/47 149/93/48 150/94/48
f 149/93/48 151/95/49 150/94/48
f 150/94/48 151/95/49 152/96/49
f 151/95/49 153/97/50 152/96/49
f 152/96/49 153/97/50 154/98/51
f 154/98/51 153/97/50 155/99/52
f 155/99/52 153/97/50 156/100/53
f 156/100/53 153/97/50 157/101/54
f 156/100/53 158/102/55 155/99/52
f 156/100/53 157/101/54 159/103/56
f 159/103/56 158/102/55 156/100/53
f 160/104/57 159/103/56 157/101/54
f 158/102/55 159/103/56 10/11/8
f 161/105/58 159/103/56 160/104/57
f 11/9/6 10/11/8 159/103/56
f 11/9/6 159/103/56 161/105/58
f 161/105/58 162/106/9 11/9/6
f 11/9/6 162/106/9 9/10/7
f 165/107/59 163/108/60 164/109/59
f 163/108/60 165/107/59 166/110/61
f 163/108/60 166/110/61 167/111/62
f 168/112/63 167/111/62 166/110/61
f 167/111/62 168/112/63 169/113/64
f 169/113/64 168/112/63 170/114/64
f 170/114/64 171/115/65 169/113/64
f 172/116/66 169/113/64 171/115/65
f 171/115/65 173/117/67 172/116/66
f 174/118/67 172/116/66 173/117/67
f 173/117/67 175/119/68 174/118/67
f 176/120/68 174/118/67 175/119/68
f 175/119/68 177/121/69 176/120/68
f 178/122/69 176/120/68 177/121/69
f 177/121/69 179/123/70 178/122/69
f 180/124/71 178/122/69 179/123/70
f 179/123/70 181/125/72 180/124/71
f 182/126/73 181/125/72 179/123/70
f 185/127/74 183/128/75 184/129/76
f 186/130/77 183/128/75 185/127/74
f 187/131/78 183/128/75 186/130/77
f 188/132/78 187/131/78 186/130/77
f 188/132/78 189/133/79 187/131/78
f 190/134/80 187/131/78 189/133/79
f 190/134/80 189/133/79 191/135/81
f 191/135/81 189/133/79 192/136/82
f 191/135/81 192/136/82 193/137/83
f 193/137/83 192/136/82 194/138/84
f 194/138/84 195/139/85 193/137/83
f 196/140/86 193/137/83 195/139/85
f 196/140/86 195/139/85 197/141/87
f 197/141/87 195/139/85 198/142/87
f 198/142/87 199/143/88 197/141/87
f 200/144/88 197/141/87 199/143/88
f 184/145/76 183/146/75 201/147/89
f 202/148/90 201/147/89 183/146/75
f 201/147/89 202/148/90 203/149/91
f 203/149/91 202/148/90 204/150/91
f 203/149/91 204/150/91 205/151/92
f 205/151/92 204/150/91 206/152/92
f 205/151/92 206/152/92 207/153/93
f 207/153/93 206/152/92 208/154/94
f 207/153/93 208/154/94 209/155/95
f 209/155/95 208/154/94 210/156/95
f 210/156/95 211/157/96 209/155/95
f 212/158/96 209/155/95 211/157/96
f 212/158/96 211/157/96 213/159/97
f 213/159/97 211/157/96 214/160/98
f 213/159/97 214/160/98 215/161/99
f 216/162/99 215/161/99 214/160/98
f 215/161/99 216/162/99 217/163/100
f 217/163/100 216/162/99 218/164/101
f 217/163/100 218/164/101 219/165/102
f 219/165/102 218/164/101 220/166/103
f 219/165/102 220/166/103 221/167/104
f 221/167/104 220/166/103 222/168/105
f 225/169/106 223/170/106 224/171/107
f 226/172/107 224/171/107 223/170/106
f 224/171/107 226/172/107 227/173/108
f 227/173/108 226/172/107 228/174/109
f 227/173/108 228/174/109 182/175/73
f 182/175/73 228/174/109 181/176/72
f 231/177/110 229/178/110 230/179/111
f 229/178/110 232/180/111 230/179/111
f 230/179/111 232/180/111 233/181/112
f 234/182/112 233/181/112 232/180/111
f 234/182/112 235/183/113 233/181/112
f 236/184/113 233/181/112 235/183/113
f 235/183/113 237/185/114 236/184/113
f 238/186/114 236/184/113 237/185/114
f 237/185/114 239/187/115 238/186/114
f 240/188/116 238/186/114 239/187/115
f 240/188/116 239/187/115 241/189/117
f 239/187/115 242/190/118 241/189/117
f 241/189/117 242/190/118 243/191/119
f 243/191/119 244/192/119 241/189/117
f 244/192/119 243/191/119 245/193/120
f 245/193/120 246/194/120 244/192/119
f 249/195/121 247/196/122 248/197/121
f 250/198/122 248/197/121 247/196/122
f 247/196/122 251/199/123 250/198/122
f 252/200/123 250/198/122 251/199/123
f 251/199/123 253/201/124 252/200/123
f 254/202/125 253/201/124 251/199/123
f 253/201/124 254/202/125 255/203/126
f 256/204/127 255/203/126 254/202/125
f 256/204/127 257/205/128 255/203/126
f 258/206/128 257/205/128 256/204/127
f 257/205/128 258/206/128 259/207/129
f 260/208/129 259/207/129 258/206/128
f 259/207/129 260/208/129 261/209/130
f 262/210/130 261/209/130 260/208/129
f 262/210/130 263/211/131 261/209/130
f 264/212/132 263/211/131 262/210/130
f 263/211/131 264/212/132 265/213/133
f 265/213/133 266/214/133 263/211/131
f 269/215/134 267/216/134 268/217/135
f 268/217/135 267/216/134 270/218/136
f 268/217/135 270/218/136 271/219/137
f 271/219/137 270/218/136 272/220/137
f 271/219/137 272/220/137 273/221/138
f 273/221/138 272/220/137 274/222/139
f 273/221/138 274/222/139 275/223/140
f 275/223/140 274/222/139 276/224/141
f 275/223/140 276/224/141 277/225/142
f 277/225/142 276/224/141 278/226/143
f 277/225/142 278/226/143 269/227/134
f 269/227/134 278/226/143 267/228/134
f 281/229/144 279/230/145 280/231/146
f 282/232/145 279/230/145 281/229/144
f 282/232/145 283/233/147 279/230/145
f 284/234/147 283/233/147 282/232/145
f 284/234/147 285/235/148 283/233/147
f 286/236/148 285/235/148 284/234/147
f 286/236/148 287/237/149 285/235/148
f 288/238/149 287/237/149 286/236/148
f 288/238/149 289/239/150 287/237/149
f 290/240/150 287/237/149 289/239/150
f 289/239/150 280/241/146 290/240/150
f 281/242/144 280/241/146 289/239/150
f 293/243/151 291/244/152 292/245/151
f 294/246/152 292/245/151 291/244/152
f 291/244/152 295/247/153 294/246/152
f 296/248/154 294/246/152 295/247/153
f 296/248/154 295/247/153 297/249/155
f 297/249/155 295/247/153 298/250/156
f 297/249/155 298/250/156 299/251/157
f 299/251/157 298/250/156 300/252/157
f 299/251/157 300/252/157 301/253/158
f 301/253/158 300/252/157 302/254/158
f 302/254/158 293/255/151 301/253/158
f 292/256/151 301/253/158 293/255/151
f 305/257/159 303/258/160 304/259/159
f 306/260/160 304/259/159 303/258/160
f 307/261/159 306/260/160 303/258/160
f 308/262/160 306/260/160 307/261/159
f 311/263/161 309/264/162 310/265/161
f 311/263/161 312/266/162 309/264/162
f 309/264/162 312/266/162 313/267/162
f 314/268/161 313/267/162 312/266/162
f 221/269/104 222/270/105 315/271/99
f 315/271/99 222/270/105 316/272/163
f 316/272/163 317/273/164 315/271/99
f 318/274/164 315/271/99 317/273/164
f 318/274/164 317/273/164 265/275/133
f 266/276/133 265/275/133 317/273/164
f 321/277/165 319/278/165 320/279/166
f 320/279/166 322/280/167 321/277/165
f 322/280/167 320/279/166 323/281/168
f 324/282/168 323/281/168 320/279/166
f 323/281/168 324/282/168 325/283/1
f 325/283/1 324/282/168 326/284/169
f 326/284/169 327/285/170 325/283/1
f 328/286/170 325/283/1 327/285/170
f 328/286/170 327/285/170 329/287/171
f 329/287/171 327/285/170 330/288/171
f 329/287/171 330/288/171 331/289/172
f 332/290/173 331/289/172 330/288/171
f 331/289/172 332/290/173 333/291/174
f 333/291/174 334/292/174 331/289/172
f 337/293/175 335/294/175 336/295/175
f 337/293/175 338/296/175 335/294/175
f 337/293/175 339/297/175 338/296/175
f 340/48/175 339/297/175 337/293/175
f 341/49/175 339/297/175 340/48/175
f 342/50/175 339/297/175 341/49/175
f 343/51/175 339/297/175 342/50/175
f 344/52/9 339/297/175 343/51/175
f 344/52/9 345/53/175 339/297/175
f 346/298/175 339/297/175 345/53/175
f 346/298/175 345/53/175 347/299/175
f 348/56/175 345/53/175 344/52/9
f 348/56/175 349/57/175 345/53/175
f 349/57/175 348/56/175 350/58/175
f 351/59/175 350/58/175 348/56/175
f 351/59/175 352/60/9 350/58/175
f 353/61/175 350/58/175 352/60/9
f 354/62/175 353/61/175 352/60/9
f 354/62/175 355/63/175 353/61/175
f 353/61/175 355/63/175 356/64/175
f 357/65/175 356/64/175 355/63/175
f 357/65/175 355/63/175 358/66/175
f 359/67/9 357/65/175 358/66/175
f 360/68/175 356/64/175 357/65/175
f 361/69/9 356/64/175 360/68/175
f 362/70/175 357/65/175 359/67/9
f 363/71/9 356/64/175 361/69/9
f 362/70/175 359/67/9 364/72/175
f 365/73/175 363/71/9 361/69/9
f 362/70/175 364/72/175 366/74/175
f 365/73/175 367/75/9 363/71/9
f 362/70/175 366/74/175 368/76/175
f 362/70/175 368/76/175 369/77/9
f 370/78/9 367/75/9 365/73/175
f 370/78/9 371/80/175 367/75/9
f 370/78/9 365/73/175 372/79/175
f 362/70/175 369/77/9 373/81/175
f 373/81/175 369/77/9 374/82/175
f 373/81/175 374/82/175 375/83/175
f 373/81/175 375/83/175 376/84/175
f 373/81/175 376/84/175 377/85/175
f 373/81/175 377/85/175 378/86/175
f 373/81/175 378/86/175 379/87/175
f 382/259/175 380/257/175 381/260/175
f 380/257/175 383/258/175 381/260/175
f 384/261/175 381/260/175 383/258/175
f 385/262/175 381/260/175 384/261/175
f 388/300/43 386/301/43 387/302/43
f 386/301/43 389/303/43 387/302/43
f 390/304/43 387/302/43 389/303/43
f 391/305/43 387/302/43 390/304/43
f 394/259/175 392/257/175 393/260/175
f 393/260/175 392/257/175 395/258/175
f 396/261/175 393/260/175 395/258/175
f 397/262/175 393/260/175 396/261/175
f 400/306/43 398/307/43 399/308/43
f 401/309/43 399/308/43 398/307/43
f 401/309/43 398/307/43 402/310/43
f 403/311/43 402/310/43 398/307/43
